<svg fill="none" height="140" viewBox="0 0 1408 140" width="1408" xmlns="http://www.w3.org/2000/svg" xmlns:xlink="http://www.w3.org/1999/xlink"><clipPath id="a"><path d="m0 0h1408v140h-1408z"/></clipPath><g clip-path="url(#a)" fill="#171836"><path d="m618.5 58.798-23.337 9.2305 23.337 9.2304v3.9469l-27.586-11.077v-4.2015l27.586-11.14v4.0109z"/><path d="m646.22 56.57c4.186 0 7.505 1.2307 9.957 3.6923 2.494 2.419 3.741 5.9628 3.741 10.631v19.416h-4.502v-18.97c0-3.4801-.867-6.1326-2.601-7.9578-1.733-1.8248-4.206-2.7373-7.419-2.7373-3.593 0-6.447 1.0822-8.561 3.2467-2.071 2.1219-3.108 5.0715-3.108 8.8486v17.57h-4.502v-47.236h4.502v19.607c1.227-1.9522 2.918-3.4589 5.073-4.5199 2.157-1.061 4.63-1.5914 7.42-1.5914v-.0002z"/><path d="m701.31 74.967h-27.903c.253 3.4801 1.585 6.3022 3.995 8.4668 2.41 2.1223 5.454 3.1834 9.132 3.1834 2.072 0 3.974-.3611 5.708-1.0826 1.733-.7636 3.233-1.8669 4.502-3.3098l2.537 2.928c-1.48 1.7826-3.34 3.1405-5.581 4.0743-2.198.9339-4.63 1.4008-7.293 1.4008-3.424 0-6.469-.7214-9.132-2.1644-2.621-1.4859-4.672-3.5231-6.151-6.1115-1.48-2.5892-2.22-5.5174-2.22-8.785 0-3.2675.698-6.1962 2.093-8.785 1.438-2.5888 3.382-4.6047 5.834-6.0477 2.494-1.4429 5.285-2.1644 8.371-2.1644 3.087 0 5.856.7215 8.308 2.1644 2.452 1.443 4.376 3.4589 5.771 6.0477 1.395 2.5464 2.092 5.4747 2.092 8.785l-.063 1.4005zm-16.108-14.515c-3.213 0-5.919 1.0397-8.117 3.1193-2.156 2.0371-3.382 4.7108-3.678 8.0213h23.654c-.296-3.3103-1.543-5.984-3.741-8.0213-2.157-2.0796-4.862-3.1193-8.118-3.1193z"/><path d="m721.28 56.571c4.355 0 7.695 1.1035 10.02 3.3103 2.325 2.1645 3.487 5.3899 3.487 9.6759v20.753h-4.312v-5.2198c-1.014 1.7396-2.515 3.0983-4.503 4.0743-1.944.976-4.27 1.4644-6.976 1.4644-3.719 0-6.679-.8917-8.877-2.6743-2.199-1.7826-3.298-4.1379-3.298-7.066 0-2.8435 1.014-5.1352 3.044-6.8753 2.072-1.74 5.348-2.61 9.829-2.61h10.591v-2.0372c0-2.8859-.803-5.0716-2.41-6.5569-1.606-1.5278-3.953-2.2918-7.039-2.2918-2.114 0-4.143.3607-6.088 1.0822-1.945.6791-3.615 1.634-5.01 2.8647l-2.029-3.3739c1.691-1.443 3.72-2.5464 6.088-3.3104 2.367-.8064 4.862-1.2095 7.483-1.2095v.0006zm-1.586 30.493c2.537 0 4.714-.5727 6.532-1.719 1.818-1.1884 3.171-2.8859 4.059-5.0925v-5.475h-10.464c-5.707 0-8.561 1.9947-8.561 5.9841 0 1.9521.74 3.5016 2.219 4.6471 1.481 1.1033 3.552 1.6553 6.215 1.6553z"/><path d="m777.59 43.074v47.236h-4.312v-6.6206c-1.353 2.2496-3.15 3.9686-5.391 5.157-2.199 1.1884-4.693 1.7826-7.483 1.7826-3.129 0-5.961-.7215-8.497-2.1645-2.537-1.4429-4.524-3.4594-5.962-6.0478-1.438-2.5892-2.156-5.5387-2.156-8.8486 0-3.3104.718-6.2599 2.156-8.8487 1.438-2.5889 3.425-4.5835 5.962-5.984 2.536-1.443 5.368-2.1644 8.497-2.1644 2.706 0 5.137.5728 7.293 1.7188 2.198 1.1034 3.995 2.7373 5.391 4.9018v-20.116h4.502v-.0011zm-16.806 43.544c2.325 0 4.418-.5306 6.278-1.5917 1.903-1.1033 3.383-2.6529 4.44-4.6471 1.099-1.9949 1.649-4.2653 1.649-6.8118 0-2.5464-.55-4.8169-1.649-6.8116-1.057-1.9947-2.537-3.5225-4.44-4.5835-1.86-1.1034-3.953-1.6552-6.278-1.6552-2.367 0-4.502.5518-6.405 1.6552-1.86 1.061-3.34 2.5888-4.439 4.5835-1.056 1.9947-1.585 4.2652-1.585 6.8116 0 2.5465.529 4.8169 1.585 6.8118 1.099 1.9942 2.579 3.5438 4.439 4.6471 1.903 1.0611 4.038 1.5917 6.405 1.5917z"/><path d="m815.86 65.927v4.2016l-27.586 11.077v-3.9468l23.337-9.2304-23.337-9.2305v-4.0106l27.586 11.14z"/><path d="m935.81 22.921-18.671 7.3845 18.671 7.3845v3.1576l-22.072-8.8614v-3.3612l22.072-8.9123v3.2085z"/><path d="m958.17 21.139c2.506 0 4.773.5772 6.803 1.7316 2.029 1.1204 3.615 2.7161 4.772 4.7873 1.15 2.071 1.72 4.4306 1.72 7.0789s-.57 5.0079-1.72 7.0789c-1.157 2.0712-2.743 3.6839-4.772 4.8382-2.03 1.1544-4.297 1.7316-6.803 1.7316-2.227 0-4.241-.4754-6.033-1.426-1.76-.9507-3.179-2.3257-4.265-4.1252v5.2966h-3.449v-37.789h3.608v16.094c1.11-1.7315 2.537-3.0387 4.257-3.9214 1.76-.9168 3.718-1.3751 5.882-1.3751v-.0001zm-.253 24.038c1.863 0 3.551-.4244 5.074-1.2732 1.522-.8828 2.711-2.122 3.551-3.7178.88-1.5957 1.324-3.4121 1.324-5.4493 0-2.0371-.444-3.8535-1.324-5.4493-.84-1.5957-2.029-2.8179-3.551-3.6668-1.523-.8827-3.211-1.3241-5.074-1.3241-1.887 0-3.6.4414-5.122 1.3241-1.49.8489-2.671 2.0711-3.551 3.6668-.841 1.5958-1.269 3.4122-1.269 5.4493 0 2.0372.428 3.8536 1.269 5.4493.88 1.5958 2.061 2.835 3.551 3.7178 1.522.8488 3.235 1.2732 5.122 1.2732z"/><path d="m989.72 48.385c-2.568 0-4.883-.5771-6.952-1.7315-2.062-1.1883-3.687-2.8181-4.868-4.8891-1.181-2.0711-1.776-4.4137-1.776-7.0281 0-2.6143.595-4.9569 1.776-7.028s2.806-3.6838 4.868-4.8382c2.069-1.1543 4.384-1.7315 6.952-1.7315 2.569 0 4.892.5772 6.953 1.7315 2.062 1.1544 3.675 2.7671 4.825 4.8382 1.18 2.0711 1.77 4.4137 1.77 7.028 0 2.6144-.59 4.957-1.77 7.0281-1.15 2.071-2.763 3.7008-4.825 4.8891-2.061 1.1544-4.384 1.7315-6.953 1.7315zm0-3.2084c1.895 0 3.584-.4244 5.074-1.2732 1.522-.8828 2.704-2.122 3.552-3.7177.848-1.5958 1.268-3.4122 1.268-5.4494 0-2.0371-.42-3.8535-1.268-5.4493-.848-1.5957-2.03-2.8179-3.552-3.6668-1.49-.8827-3.179-1.3241-5.074-1.3241-1.894 0-3.599.4414-5.121 1.3241-1.491.8489-2.672 2.0711-3.552 3.6668-.848 1.5958-1.268 3.4122-1.268 5.4493 0 2.0372.42 3.8536 1.268 5.4494.88 1.5957 2.061 2.8349 3.552 3.7177 1.522.8488 3.227 1.2732 5.121 1.2732z"/><path d="m1035 10.342v37.789h-3.45v-5.2965c-1.08 1.7995-2.52 3.1745-4.31 4.1252-1.76.9506-3.76 1.426-5.99 1.426-2.5 0-4.77-.5772-6.8-1.7316-2.03-1.1543-3.61-2.7671-4.76-4.8382-1.15-2.071-1.73-4.4307-1.73-7.079 0-2.6482.58-5.0078 1.73-7.0789s2.73-3.6669 4.76-4.7873c2.03-1.1543 4.3-1.7315 6.8-1.7315 2.17 0 4.11.4583 5.84 1.3751 1.76.8827 3.19 2.1899 4.31 3.9214v-16.094h3.6v.0001zm-13.44 34.834c1.86 0 3.53-.4244 5.02-1.2732 1.52-.8827 2.7-2.1219 3.55-3.7177.88-1.5958 1.32-3.4122 1.32-5.4493s-.44-3.8535-1.32-5.4493c-.85-1.5958-2.03-2.818-3.55-3.6668-1.49-.8827-3.16-1.3241-5.02-1.3241-1.9 0-3.6.4414-5.13 1.3241-1.49.8488-2.67 2.071-3.55 3.6668-.85 1.5958-1.27 3.4122-1.27 5.4493s.42 3.8535 1.27 5.4493c.88 1.5958 2.06 2.835 3.55 3.7177 1.53.8488 3.23 1.2732 5.13 1.2732z"/><path d="m1067.4 21.34-13.35 29.997c-1.08 2.5125-2.34 4.2949-3.75 5.3475-1.42 1.0524-3.13 1.5787-5.13 1.5787-1.28 0-2.49-.2037-3.6-.6111-1.11-.4075-2.08-1.0186-2.89-1.8334l1.67-2.6992c1.36 1.3581 2.98 2.0371 4.87 2.0371 1.22 0 2.25-.3395 3.1-1.0185.88-.6791 1.69-1.8335 2.44-3.4631l1.16-2.5973-11.92-26.737h3.75l10.05 22.765 10.04-22.765h3.56v-.0004z"/><path d="m1093.1 28.623v3.3612l-22.07 8.8614v-3.1575l18.67-7.3846-18.67-7.3845v-3.2085l22.07 8.9123z"/><path d="m565.93 12.579-18.669 7.3846 18.669 7.3845v3.1576l-22.069-8.8614v-3.3612l22.069-8.9123v3.2084z"/><path d="m588.1 10.797c3.349 0 6.004.9846 7.965 2.9538 1.996 1.9353 2.994 4.7703 2.994 8.505v15.533h-3.602v-15.176c0-2.784-.693-4.9061-2.08-6.366s-3.365-2.1899-5.936-2.1899c-2.875 0-5.158.8657-6.849 2.5973-1.657 1.6977-2.486 4.0573-2.486 7.079v14.056h-3.602v-37.789h3.602v15.686c.981-1.5618 2.334-2.7671 4.059-3.6159s3.704-1.2732 5.935-1.2732v.0003z"/><path d="m615.11 2.1387v35.65h-3.652v-32.39h-8.371v-3.2594h12.023v-.0004z"/><path d="m646.59 18.282v3.3612l-22.069 8.8614v-3.1575l18.669-7.3846-18.669-7.3846v-3.2084l22.069 8.9123z"/><path d="m1136.9 112.05-18.68 7.384 18.68 7.385v3.157l-22.07-8.861v-3.362l22.07-8.912z"/><path d="m1156.4 137.51c-2.57 0-4.89-.577-6.96-1.731-2.06-1.189-3.68-2.819-4.86-4.889-1.19-2.072-1.78-4.414-1.78-7.029 0-2.614.59-4.956 1.78-7.028 1.18-2.071 2.8-3.683 4.86-4.838 2.07-1.154 4.39-1.731 6.96-1.731s4.88.577 6.95 1.731c2.06 1.155 3.66 2.767 4.81 4.838 1.19 2.072 1.78 4.414 1.78 7.028 0 2.615-.59 4.957-1.78 7.029-1.15 2.07-2.75 3.7-4.81 4.889-2.07 1.154-4.38 1.731-6.95 1.731zm0-3.208c1.89 0 3.58-.424 5.07-1.273 1.52-.883 2.7-2.122 3.55-3.718.84-1.596 1.27-3.413 1.27-5.45s-.43-3.853-1.27-5.449c-.85-1.595-2.03-2.818-3.55-3.667-1.49-.883-3.18-1.324-5.07-1.324-1.9 0-3.61.441-5.12 1.324-1.49.849-2.68 2.072-3.56 3.667-.84 1.596-1.26 3.412-1.26 5.449s.42 3.854 1.26 5.45c.88 1.596 2.07 2.835 3.56 3.718 1.51.849 3.22 1.273 5.12 1.273z"/><path d="m1177.3 99.463h3.6v37.789h-3.6z"/><path d="m1211.6 117.75v3.362l-22.08 8.861v-3.157l18.67-7.385-18.67-7.384v-3.209z"/><path d="m373.49 103.3-18.669 7.385 18.669 7.384v3.158l-22.068-8.862v-3.361l22.068-8.912z"/><path d="m415.35 101.51c3.349 0 5.97.968 7.864 2.903 1.928 1.936 2.892 4.787 2.892 8.556v15.533h-3.603v-15.176c0-2.785-.676-4.907-2.029-6.367-1.319-1.459-3.196-2.189-5.631-2.189-2.774 0-4.955.865-6.545 2.597-1.589 1.697-2.385 4.057-2.385 7.078v14.057h-3.601v-15.176c0-2.785-.677-4.907-2.03-6.367-1.319-1.459-3.213-2.189-5.682-2.189-2.74 0-4.921.865-6.544 2.597-1.59 1.697-2.385 4.057-2.385 7.078v14.057h-3.602v-26.788h3.45v4.889c.947-1.63 2.266-2.886 3.957-3.769s3.636-1.324 5.835-1.324c2.232 0 4.159.475 5.783 1.426 1.658.951 2.892 2.36 3.704 4.227.981-1.765 2.384-3.14 4.21-4.125 1.86-1.018 3.975-1.528 6.342-1.528z"/><path d="m459.22 116.23h-22.322c.203 2.784 1.268 5.042 3.196 6.773 1.927 1.699 4.363 2.547 7.306 2.547 1.657 0 3.179-.288 4.565-.866 1.387-.611 2.588-1.494 3.602-2.648l2.03 2.343c-1.184 1.426-2.672 2.512-4.465 3.259-1.759.747-3.703 1.12-5.834 1.12-2.74 0-5.175-.576-7.305-1.731-2.097-1.189-3.738-2.818-4.922-4.889-1.184-2.072-1.775-4.414-1.775-7.028 0-2.615.557-4.957 1.674-7.029 1.15-2.07 2.705-3.683 4.668-4.838 1.995-1.154 4.227-1.731 6.696-1.731s4.684.577 6.646 1.731c1.962 1.155 3.5 2.768 4.617 4.838 1.116 2.038 1.674 4.381 1.674 7.029zm-12.886-11.611c-2.571 0-4.735.832-6.494 2.495-1.725 1.63-2.705 3.769-2.942 6.417h18.923c-.236-2.648-1.235-4.787-2.993-6.417-1.725-1.663-3.889-2.495-6.494-2.495z"/><path d="m480.65 126.87c-.676.612-1.522 1.087-2.536 1.426-.981.306-2.013.459-3.095.459-2.503 0-4.431-.68-5.783-2.038-1.353-1.357-2.03-3.276-2.03-5.755v-16.194h-4.768v-3.056h4.768v-5.8566h3.602v5.8566h8.117v3.056h-8.117v15.991c0 1.595.389 2.818 1.167 3.667.812.814 1.962 1.222 3.45 1.222.744 0 1.454-.119 2.13-.357.711-.237 1.32-.577 1.827-1.018z"/><path d="m496.54 101.51c3.484 0 6.156.883 8.016 2.649 1.86 1.731 2.79 4.311 2.79 7.74v16.603h-3.449v-4.176c-.812 1.392-2.013 2.478-3.603 3.26-1.555.78-3.416 1.171-5.58 1.171-2.976 0-5.345-.713-7.103-2.139-1.758-1.427-2.638-3.31-2.638-5.654 0-2.274.811-4.107 2.435-5.5 1.657-1.392 4.279-2.088 7.864-2.088h8.472v-1.629c0-2.309-.643-4.057-1.928-5.246-1.285-1.222-3.162-1.833-5.631-1.833-1.691 0-3.315.289-4.871.865-1.555.544-2.891 1.308-4.007 2.292l-1.624-2.699c1.353-1.154 2.977-2.037 4.871-2.648 1.894-.645 3.889-.968 5.986-.968zm-1.268 24.395c2.029 0 3.771-.458 5.225-1.376 1.455-.95 2.537-2.308 3.247-4.074v-4.38h-8.371c-4.565 0-6.849 1.596-6.849 4.787 0 1.563.592 2.802 1.776 3.718 1.184.883 2.841 1.325 4.972 1.325z"/><path d="m537.73 109v3.361l-22.069 8.862v-3.158l18.669-7.384-18.669-7.385v-3.208z"/><path d="m340.81 32.502-14.002 5.5385 14.002 5.5383v2.3682l-16.552-6.6461v-2.5209l16.552-6.6843z"/><path d="m352.6 51.601c-1.622 0-3.183-.2291-4.679-.6875-1.472-.4838-2.626-1.0823-3.463-1.7952l1.217-2.139c.838.662 1.89 1.2096 3.159 1.6424 1.268.4075 2.588.6112 3.957.6112 1.826 0 3.171-.2802 4.033-.8403.888-.5857 1.332-1.4006 1.332-2.4446 0-.7384-.241-1.3114-.723-1.7188-.482-.4329-1.091-.7512-1.826-.9549-.736-.2292-1.713-.4456-2.93-.6493-1.623-.3056-2.93-.6112-3.919-.9167-.99-.3311-1.84-.8785-2.55-1.6425-.685-.7639-1.027-1.8206-1.027-3.1702 0-1.6807.697-3.0557 2.093-4.1252 1.395-1.0695 3.336-1.6042 5.821-1.6042 1.294 0 2.588.1782 3.882.5347 1.293.3311 2.358.7767 3.195 1.3369l-1.178 2.1771c-1.65-1.1458-3.616-1.7188-5.899-1.7188-1.724 0-3.031.3056-3.919.9168-.862.6111-1.293 1.4132-1.293 2.4063 0 .7639.241 1.375.723 1.8334.507.4584 1.128.8021 1.864 1.0313.736.2037 1.75.4201 3.044.6493 1.598.3056 2.879.6111 3.843.9168.964.3055 1.788.8275 2.473 1.566.685.7384 1.027 1.757 1.027 3.0556 0 1.757-.735 3.1576-2.206 4.2016-1.446 1.0185-3.463 1.5278-6.051 1.5278z"/><path d="m383.28 42.205h-16.742c.152 2.0881.952 3.7814 2.398 5.0801 1.445 1.2732 3.271 1.9097 5.479 1.9097 1.243 0 2.384-.2163 3.424-.6493 1.04-.4583 1.94-1.1204 2.701-1.9862l1.523 1.757c-.888 1.0695-2.005 1.8844-3.349 2.4446-1.319.5602-2.777.8403-4.376.8403-2.054 0-3.881-.4328-5.479-1.2986-1.572-.8912-2.803-2.1135-3.691-3.6668-.888-1.5534-1.332-3.3104-1.332-5.2711s.419-3.7177 1.256-5.271c.863-1.5534 2.03-2.7629 3.501-3.6286 1.496-.8658 3.171-1.2987 5.022-1.2987 1.852 0 3.513.4329 4.985 1.2987 1.471.8657 2.625 2.0752 3.463 3.6286.837 1.5278 1.255 3.2848 1.255 5.271zm-9.665-8.7086c-1.928 0-3.551.6239-4.87 1.8716-1.293 1.2223-2.029 2.8265-2.207 4.8127h14.193c-.178-1.9862-.926-3.5904-2.245-4.8127-1.294-1.2477-2.917-1.8716-4.871-1.8716z"/><path d="m397.12 51.601c-1.978 0-3.754-.4328-5.327-1.2986-1.548-.8658-2.765-2.0754-3.652-3.6286-.888-1.5789-1.332-3.3486-1.332-5.3093s.444-3.7177 1.332-5.271c.887-1.5534 2.104-2.7629 3.652-3.6286 1.573-.8658 3.349-1.2987 5.327-1.2987 1.725 0 3.26.3437 4.604 1.0312 1.369.6622 2.448 1.6425 3.234 2.9412l-2.016 1.3751c-.66-.9932-1.497-1.7317-2.512-2.2155-1.014-.5092-2.118-.7638-3.31-.7638-1.446 0-2.752.331-3.919.993-1.142.6366-2.042 1.5534-2.702 2.7501-.634 1.1969-.951 2.5592-.951 4.087 0 1.5533.317 2.9284.951 4.1251.66 1.1714 1.56 2.0881 2.702 2.7502 1.167.6366 2.473.9548 3.919.9548 1.192 0 2.296-.2419 3.31-.7257 1.015-.4838 1.852-1.2223 2.512-2.2153l2.016 1.375c-.786 1.2987-1.865 2.2918-3.234 2.9793-1.37.6621-2.905.9931-4.604.9931z"/><path d="m421.02 50.187c-.508.4584-1.142.8149-1.903 1.0695-.736.2292-1.509.3438-2.321.3438-1.877 0-3.323-.5093-4.338-1.5278-1.015-1.0186-1.521-2.4573-1.521-4.3161v-12.147h-3.577v-2.2918h3.577v-4.3925h2.701v4.3925h6.088v2.2918h-6.088v11.994c0 1.1968.292 2.1135.875 2.7502.609.611 1.472.9166 2.588.9166.558 0 1.091-.0891 1.597-.2673.533-.1783.99-.4329 1.37-.764l.952 1.948v-.0001z"/><path d="m425.94 31.319h2.702v20.091h-2.702zm1.37-4.3925c-.558 0-1.028-.191-1.408-.573-.381-.3819-.571-.8403-.571-1.375 0-.5093.19-.955.571-1.3369.38-.382.85-.5729 1.408-.5729s1.027.1909 1.408.5729c.38.3565.571.7894.571 1.2987 0 .5601-.191 1.0313-.571 1.4132-.381.382-.85.573-1.408.573z"/><path d="m444.34 51.601c-1.927 0-3.665-.4328-5.212-1.2986-1.548-.8912-2.765-2.1135-3.653-3.6668-.888-1.5534-1.332-3.3104-1.332-5.2711s.444-3.7177 1.332-5.271c.888-1.5534 2.105-2.7629 3.653-3.6286 1.547-.8658 3.285-1.2987 5.212-1.2987 1.928 0 3.666.4329 5.214 1.2987 1.547.8657 2.752 2.0752 3.614 3.6286.888 1.5533 1.332 3.3103 1.332 5.271s-.444 3.7177-1.332 5.2711c-.862 1.5533-2.067 2.7756-3.614 3.6668-1.548.8658-3.286 1.2986-5.214 1.2986zm0-2.4064c1.421 0 2.69-.3182 3.806-.9548 1.141-.6621 2.029-1.5915 2.664-2.7883.633-1.1968.95-2.5592.95-4.087s-.317-2.8901-.95-4.087c-.635-1.1967-1.523-2.1135-2.664-2.7501-1.116-.662-2.385-.993-3.806-.993-1.42 0-2.701.331-3.842.993-1.117.6366-2.004 1.5534-2.664 2.7501-.634 1.1969-.951 2.5592-.951 4.087s.317 2.8902.951 4.087c.66 1.1968 1.547 2.1262 2.664 2.7883 1.141.6366 2.422.9548 3.842.9548z"/><path d="m470.21 31.166c2.511 0 4.503.7384 5.974 2.2154 1.497 1.4514 2.244 3.5777 2.244 6.3787v11.649h-2.701v-11.382c0-2.0881-.52-3.6796-1.56-4.7745s-2.524-1.6425-4.451-1.6425c-2.157 0-3.869.6494-5.138 1.948-1.242 1.2732-1.864 3.043-1.864 5.3093v10.542h-2.701v-20.091h2.587v3.705c.736-1.2223 1.75-2.1644 3.044-2.8265 1.319-.6876 2.841-1.0313 4.566-1.0313v-.0003z"/><path d="m501.22 36.78v2.5209l-16.552 6.6461v-2.3682l14.003-5.5383-14.003-5.5385v-2.4063z"/><path d="m266.11 10.254-10.501 4.1538 10.501 4.1538v1.7762l-12.414-4.9846v-1.8907l12.414-5.0133z"/><path d="m270.94 9.3675h2.026v15.068h-2.026zm1.027-3.2945c-.418 0-.77-.14323-1.055-.4297-.286-.28647-.429-.63023-.429-1.0313 0-.38196.143-.71617.429-1.0027.285-.28647.637-.4297 1.055-.4297s.77.14323 1.056.4297c.285.26738.428.59204.428.97404 0 .42015-.143.77346-.428 1.0599-.286.28647-.638.4297-1.056.4297z"/><path d="m297.32 9.252c1.884 0 3.358.54433 4.423 1.6329 1.085 1.0886 1.627 2.6928 1.627 4.8127v8.7373h-2.026v-8.5368c0-1.5661-.381-2.7597-1.141-3.5809-.742-.8212-1.798-1.2318-3.168-1.2318-1.56 0-2.788.487-3.682 1.461-.893.9549-1.34 2.2822-1.34 3.9819v7.9066h-2.027v-8.5368c0-1.5661-.38-2.7597-1.141-3.5809-.743-.8212-1.808-1.2318-3.196-1.2318-1.541 0-2.769.487-3.682 1.461-.894.9549-1.341 2.2822-1.341 3.9819v7.9066h-2.026v-15.068h1.94v2.7501c.533-.9168 1.275-1.6234 2.226-2.1199.952-.49661 2.046-.74487 3.282-.74487 1.255 0 2.34.26736 3.253.80215.933.5347 1.627 1.3273 2.084 2.3777.551-.9931 1.341-1.7666 2.368-2.3204 1.046-.57292 2.235-.85945 3.567-.85945v.00008z"/><path d="m322.82 9.3667v13.235c0 2.5592-.628 4.4499-1.883 5.6722-1.237 1.2413-3.111 1.862-5.622 1.862-1.389 0-2.711-.2101-3.967-.6303-1.236-.401-2.245-.9644-3.025-1.6901l1.027-1.547c.724.6494 1.599 1.1555 2.626 1.5183 1.047.3629 2.141.5443 3.282.5443 1.902 0 3.301-.4487 4.195-1.3463.894-.8785 1.341-2.2536 1.341-4.1253v-1.9192c-.627.9548-1.455 1.6805-2.483 2.1771-1.008.4965-2.131.7448-3.367.7448-1.408 0-2.692-.3055-3.853-.9167-1.141-.6302-2.045-1.4992-2.711-2.6068-.647-1.1268-.97-2.3968-.97-3.8101s.323-2.6737.97-3.7814c.666-1.1077 1.57-1.9671 2.711-2.5783 1.142-.61103 2.426-.91665 3.853-.91665 1.274 0 2.426.25781 3.453.77355 1.028.5156 1.855 1.2604 2.483 2.2344v-2.8933h1.94v.00008zm-7.677 12.691c1.085 0 2.065-.2291 2.94-.6875.875-.4775 1.551-1.1364 2.026-1.9767.495-.8403.743-1.7952.743-2.8646 0-1.0695-.248-2.0149-.743-2.8361-.475-.8403-1.151-1.4896-2.026-1.948-.856-.4774-1.836-.7162-2.94-.7162-1.083 0-2.063.2293-2.938.6876-.857.4583-1.532 1.1077-2.027 1.948-.476.8403-.713 1.7952-.713 2.8647 0 1.0694.237 2.0243.713 2.8646.495.8403 1.17 1.4992 2.027 1.9767.875.4584 1.855.6875 2.938.6875z"/><path d="m340.07 13.462v1.8907l-12.415 4.9846v-1.7762l10.502-4.1538-10.502-4.1538v-1.8048z"/><path d="m1020.5 80.23-14.01 5.5388 14.01 5.5387v2.3681l-16.55-6.646v-2.5216l16.55-6.684z"/><path d="m1034 78.893c2.61 0 4.61.662 6.01 1.9864 1.39 1.2982 2.09 3.2335 2.09 5.8052v12.452h-2.58v-3.1317c-.61 1.0436-1.52 1.8589-2.71 2.4444-1.16.5854-2.56.8782-4.18.8782-2.24 0-4-.5346-5.33-1.6037-1.31-1.0699-1.97-2.4834-1.97-4.2397 0-1.7063.6-3.0816 1.82-4.1253 1.25-1.0444 3.21-1.5662 5.9-1.5662h6.35v-1.2226c0-1.7309-.48-3.0426-1.44-3.9336-.97-.9171-2.37-1.3753-4.23-1.3753-1.27 0-2.48.2164-3.65.6491-1.17.4073-2.17.9808-3.01 1.719l-1.21-2.0245c1.01-.8654 2.23-1.528 3.65-1.9862 1.42-.4837 2.91-.7256 4.49-.7256zm-.95 18.295c1.52 0 2.83-.3436 3.92-1.0309 1.09-.7135 1.9-1.7317 2.43-3.0561v-3.2844h-6.28c-3.42 0-5.13 1.1963-5.13 3.5906 0 1.1709.44 2.1 1.32 2.7881.89.6618 2.14.9927 3.74.9927z"/><path d="m1052 82.982c.63-1.3499 1.57-2.368 2.81-3.0561 1.27-.6874 2.83-1.0311 4.69-1.0311v2.6355l-.65-.0382c-2.11 0-3.76.6491-4.95 1.9481-1.19 1.2982-1.79 3.119-1.79 5.4616v10.237h-2.7v-20.091h2.59v3.9345-.0002z"/><path d="m1075.7 97.912c-.51.4582-1.14.8146-1.9 1.0691-.74.2291-1.52.3437-2.32.3437-1.88 0-3.33-.5091-4.34-1.5273-1.02-1.019-1.52-2.458-1.52-4.3162v-12.146h-3.58v-2.2919h3.58v-4.3925h2.7v4.3925h6.09v2.2919h-6.09v11.993c0 1.1972.29 2.1135.87 2.7507.61.6109 1.48.9164 2.59.9164.56 0 1.09-.0891 1.6-.2673.53-.1782.99-.4327 1.37-.7636l.95 1.948z"/><path d="m1080.7 79.045h2.7v20.091h-2.7zm1.37-4.3925c-.57 0-1.03-.191-1.41-.5729s-.57-.8404-.57-1.3751c0-.5092.19-.9549.57-1.3368.38-.382.84-.573 1.41-.573.55 0 1.02.191 1.4.573.38.3564.57.7893.57 1.2987 0 .5601-.19 1.0313-.57 1.4132s-.85.5729-1.4.5729z"/><path d="m1099.2 99.329c-1.98 0-3.75-.4327-5.33-1.2982-1.55-.8662-2.76-2.0753-3.65-3.6288-.89-1.579-1.33-3.3489-1.33-5.3089 0-1.9608.44-3.7179 1.33-5.2715.89-1.5535 2.1-2.7626 3.65-3.6288 1.58-.8655 3.35-1.2984 5.33-1.2984 1.73 0 3.26.3437 4.6 1.0311 1.37.6626 2.45 1.6426 3.24 2.9416l-2.02 1.3745c-.66-.9927-1.49-1.7317-2.51-2.2153-1.01-.5091-2.12-.7636-3.31-.7636-1.45 0-2.75.3309-3.92.9927-1.14.6371-2.04 1.5535-2.7 2.7507-.64 1.1963-.95 2.5589-.95 4.087 0 1.5527.31 2.9281.95 4.1244.66 1.1718 1.56 2.0881 2.7 2.7507 1.17.6364 2.47.9546 3.92.9546 1.19 0 2.3-.2418 3.31-.7255 1.02-.4836 1.85-1.2226 2.51-2.2153l2.02 1.3745c-.79 1.299-1.87 2.2917-3.24 2.9798-1.37.6618-2.9.9927-4.6.9927z"/><path d="m1112 70.795h2.7v28.341h-2.7z"/><path d="m1139.7 89.933h-16.75c.16 2.0881.96 3.7816 2.41 5.0798 1.44 1.2735 3.26 1.9099 5.48 1.9099 1.23 0 2.37-.2164 3.42-.6491 1.04-.4582 1.93-1.1208 2.7-1.9863l1.52 1.7572c-.89 1.0691-2 1.8844-3.35 2.4444-1.31.56-2.77.84-4.37.84-2.06 0-3.88-.4327-5.48-1.2982-1.57-.8917-2.81-2.1135-3.7-3.667-.88-1.5535-1.33-3.3107-1.33-5.2707 0-1.9608.42-3.7179 1.26-5.2715.87-1.5535 2.03-2.7626 3.5-3.6288 1.5-.8655 3.17-1.2984 5.02-1.2984 1.86 0 3.52.4329 4.99 1.2984 1.47.8662 2.63 2.0753 3.46 3.6288.84 1.5281 1.26 3.2853 1.26 5.2715zm-9.67-8.7086c-1.92 0-3.55.6236-4.86 1.8717-1.3 1.2218-2.03 2.8262-2.22 4.8125h14.2c-.18-1.9863-.92-3.5907-2.25-4.8125-1.29-1.2481-2.92-1.8717-4.87-1.8717z"/><path d="m1160.6 84.508v2.5216l-16.55 6.646v-2.3681l14-5.5387-14-5.5388v-2.406z"/><path d="m734.03 12.512-14.002 5.5384 14.002 5.5385v2.3681l-16.552-6.6461v-2.5209l16.552-6.6843z"/><path d="m747.09 5.1805c-1.167 0-2.054.31829-2.663.95486-.583.6366-.875 1.5787-.875 2.8265v2.3681h6.164v2.2918h-6.088v17.799h-2.702v-17.799h-3.576v-2.2918h3.576v-2.4827c0-1.8334.521-3.2848 1.561-4.3543 1.065-1.0695 2.562-1.6043 4.489-1.6043.761 0 1.497.11459 2.207.34377.711.2037 1.307.50928 1.789.91668l-.913 2.0244c-.787-.66207-1.776-.99313-2.969-.99313v.0002zm9.323 6.1496h2.702v20.091h-2.702zm1.37-4.3926c-.558 0-1.028-.19099-1.408-.57294-.381-.38196-.571-.84032-.571-1.375 0-.50928.19-.95487.571-1.3368.38-.38196.85-.57294 1.408-.57294s1.027.19098 1.408.57294c.379.3565.57.78938.57 1.2987 0 .5602-.191 1.0313-.57 1.4133-.381.38195-.85.57294-1.408.57294v-.00008z"/><path d="m785.2 11.329v17.646c0 3.4122-.838 5.9331-2.512 7.5628-1.649 1.6552-4.147 2.4828-7.496 2.4828-1.852 0-3.614-.2802-5.288-.8404-1.649-.5347-2.994-1.2859-4.034-2.2536l1.37-2.0625c.964.8658 2.131 1.5406 3.501 2.0244 1.395.4838 2.853.7257 4.375.7257 2.537 0 4.402-.5984 5.593-1.7952 1.193-1.1713 1.789-3.0048 1.789-5.5002v-2.5591c-.837 1.2732-1.941 2.2408-3.31 2.9028-1.345.6621-2.841.9931-4.49.9931-1.877 0-3.589-.4074-5.137-1.2222-1.522-.8404-2.727-1.9989-3.615-3.4759-.862-1.5023-1.293-3.1957-1.293-5.0801 0-1.8842.431-3.5649 1.293-5.0418.888-1.4769 2.093-2.6228 3.615-3.4376 1.522-.8149 3.235-1.2223 5.137-1.2223 1.699 0 3.234.3438 4.604 1.0313 1.369.6875 2.473 1.6806 3.31 2.9793v-3.8578h2.588v.0001zm-10.236 16.921c1.446 0 2.752-.3057 3.919-.9168 1.167-.6366 2.067-1.5151 2.702-2.6355.659-1.1204.989-2.3936.989-3.8196s-.33-2.6864-.989-3.7814c-.635-1.1204-1.535-1.9862-2.702-2.5973-1.141-.6366-2.448-.9549-3.919-.9549-1.446 0-2.752.3056-3.919.9166-1.141.6112-2.042 1.477-2.702 2.5974-.634 1.1204-.951 2.3936-.951 3.8196s.317 2.6992.951 3.8196c.66 1.1204 1.561 1.9989 2.702 2.6355 1.167.6111 2.473.9168 3.919.9168z"/><path d="m810.79 11.328v20.091h-2.584v-3.6668c-.714 1.2223-1.689 2.1771-2.934 2.8647-1.237.6621-2.664.9931-4.257.9931-2.616 0-4.678-.7257-6.2-2.1772-1.498-1.4769-2.248-3.6286-2.248-6.4551v-11.65h2.7v11.382c0 2.1135.523 3.7177 1.562 4.8127 1.039 1.0949 2.521 1.6424 4.448 1.6424 2.108 0 3.773-.6366 4.986-1.9098 1.221-1.2986 1.832-3.0938 1.832-5.3856v-10.542h2.695v.0003z"/><path d="m820.94 15.263c.634-1.3495 1.57-2.3681 2.814-3.0556 1.269-.6875 2.831-1.0313 4.686-1.0313v2.6355l-.65-.0382c-2.109 0-3.758.6493-4.947 1.948-1.189 1.2986-1.792 3.1194-1.792 5.4621v10.237h-2.695v-20.091h2.584v3.9341-.0005z"/><path d="m850.59 22.214h-16.736c.151 2.088.952 3.7813 2.395 5.08 1.443 1.2732 3.274 1.9098 5.478 1.9098 1.244 0 2.386-.2165 3.425-.6494 1.038-.4583 1.942-1.1203 2.703-1.9861l1.522 1.757c-.888 1.0695-2.006 1.8843-3.353 2.4445-1.316.5602-2.775.8403-4.377.8403-2.053 0-3.876-.4329-5.478-1.2986-1.569-.8913-2.798-2.1136-3.686-3.6669-.888-1.5532-1.332-3.3102-1.332-5.271s.42-3.7178 1.253-5.271c.864-1.5533 2.029-2.7629 3.504-3.6287 1.49-.8657 3.171-1.2986 5.018-1.2986 1.855 0 3.512.4329 4.987 1.2986 1.474.8658 2.624 2.0754 3.464 3.6287.833 1.5278 1.253 3.2848 1.253 5.271zm-9.664-8.7087c-1.926 0-3.552.6239-4.868 1.8717-1.292 1.2222-2.029 2.8264-2.204 4.8126h14.191c-.182-1.9862-.927-3.5904-2.243-4.8126-1.3-1.2478-2.918-1.8717-4.876-1.8717z"/><path d="m871.52 16.79v2.5209l-16.545 6.6461v-2.3681l14-5.5385-14-5.5384v-2.4063z"/><path d="m581.82 113.69-14.003 5.537 14.003 5.539v2.368l-16.552-6.646v-2.521l16.552-6.684z"/><path d="m598.56 112.35c1.877 0 3.577.432 5.099 1.299 1.522.84 2.714 2.037 3.577 3.589.862 1.554 1.293 3.324 1.293 5.31 0 2.012-.431 3.794-1.293 5.347-.863 1.554-2.055 2.764-3.577 3.629-1.497.84-3.197 1.261-5.099 1.261-1.623 0-3.095-.332-4.414-.994-1.293-.687-2.358-1.68-3.196-2.979v11.192h-2.701v-27.502h2.587v3.973c.812-1.325 1.878-2.343 3.196-3.056 1.345-.713 2.854-1.069 4.528-1.069zm-.19 18.029c1.396 0 2.663-.319 3.805-.956 1.141-.662 2.029-1.591 2.664-2.788.659-1.197.989-2.559.989-4.087s-.33-2.877-.989-4.049c-.635-1.197-1.523-2.126-2.664-2.788-1.142-.662-2.409-.993-3.805-.993-1.42 0-2.702.331-3.843.993-1.117.662-2.004 1.591-2.663 2.788-.635 1.172-.952 2.521-.952 4.049s.317 2.89.952 4.087c.659 1.197 1.546 2.126 2.663 2.788 1.141.637 2.423.956 3.843.956z"/><path d="m629.49 117.96v2.52l-16.552 6.646v-2.368l14.002-5.538-14.002-5.538v-2.407z"/><path d="m472.05 62.6-10.502 4.1539 10.502 4.1538v1.7761l-12.414-4.9846v-1.8907l12.414-5.0132z"/><path d="m482.13 61.598c1.96 0 3.462.4965 4.509 1.4896 1.046.974 1.569 2.4255 1.569 4.3544v9.3386h-1.94v-2.3491c-.457.7831-1.132 1.3942-2.026 1.8335-.875.4392-1.922.6589-3.139.6589-1.675 0-3.006-.4011-3.995-1.2032-.99-.8021-1.484-1.862-1.484-3.1799 0-1.2795.456-2.3108 1.37-3.0938.932-.7831 2.406-1.1745 4.422-1.1745h4.766v-.9168c0-1.2986-.362-2.2821-1.084-2.9505-.723-.6876-1.779-1.0314-3.168-1.0314-.951 0-1.864.1624-2.74.487-.875.3056-1.626.7353-2.254 1.2891l-.913-1.5182c.761-.6494 1.675-1.1459 2.739-1.4897 1.066-.3629 2.188-.5442 3.368-.5442zm-.714 13.722c1.142 0 2.122-.2578 2.94-.7734.818-.5348 1.426-1.2987 1.826-2.2918v-2.4636h-4.708c-2.569 0-3.853.8976-3.853 2.6928 0 .8785.333 1.5756.999 2.0912.665.4965 1.598.7448 2.796.7448z"/><path d="m497.73 76.924c-1.218 0-2.388-.1719-3.51-.5157-1.103-.3628-1.969-.8116-2.597-1.3464l.913-1.6042c.628.4965 1.418.9071 2.369 1.2317.951.3057 1.94.4585 2.968.4585 1.37 0 2.378-.2101 3.025-.6303.666-.4392.999-1.0504.999-1.8334 0-.5538-.181-.9835-.542-1.2891-.362-.3246-.819-.5634-1.37-.7162-.552-.1719-1.285-.3342-2.198-.487-1.218-.2292-2.198-.4584-2.939-.6875-.742-.2483-1.379-.6589-1.912-1.2318-.514-.573-.771-1.3656-.771-2.3777 0-1.2605.524-2.2918 1.57-3.0939 1.047-.8022 2.501-1.2031 4.366-1.2031.97 0 1.941.1336 2.911.4009.97.2484 1.769.5826 2.397 1.0027l-.885 1.6329c-1.236-.8594-2.711-1.2891-4.423-1.2891-1.294 0-2.274.2292-2.939.6875-.647.4584-.97 1.06-.97 1.8048 0 .5729.18 1.0313.542 1.3751.38.3437.846.6016 1.398.7734.551.1528 1.313.3151 2.283.487 1.199.2292 2.159.4584 2.882.6875.724.2292 1.341.6207 1.855 1.1745.514.5539.77 1.3178.77 2.2918 0 1.3178-.551 2.3682-1.654 3.1512-1.085.7639-2.597 1.1459-4.538 1.1459z"/><path d="m507.67 61.713h2.026v15.068h-2.026zm1.027-3.2943c-.418 0-.77-.1433-1.056-.4297-.285-.2866-.428-.6303-.428-1.0313 0-.382.143-.7162.428-1.0027.286-.2864.638-.4297 1.056-.4297.419 0 .771.1433 1.056.4297.286.2674.429.5921.429.974 0 .4202-.143.7734-.429 1.06-.285.2864-.637.4297-1.056.4297z"/><path d="m529.03 55.525v21.256h-1.941v-2.9793c-.609 1.0122-1.417 1.7857-2.425 2.3205-.989.5347-2.112.8021-3.368.8021-1.408 0-2.683-.3247-3.824-.974-1.141-.6494-2.035-1.5565-2.682-2.7215s-.971-2.4923-.971-3.9819c0-1.4897.324-2.817.971-3.9819.647-1.165 1.541-2.0626 2.682-2.6929 1.141-.6493 2.416-.9739 3.824-.9739 1.218 0 2.312.2578 3.282.7734.99.4965 1.798 1.2318 2.425 2.2058v-9.0523h2.027v-.0002zm-7.563 19.594c1.047 0 1.989-.2387 2.826-.7161.856-.4965 1.521-1.1936 1.997-2.0913.495-.8976.742-1.9193.742-3.0652 0-1.1458-.247-2.1676-.742-3.0652-.476-.8976-1.141-1.5851-1.997-2.0626-.837-.4965-1.779-.7448-2.826-.7448-1.065 0-2.026.2483-2.882.7448-.837.4775-1.503 1.165-1.997 2.0626-.476.8976-.714 1.9194-.714 3.0652 0 1.1459.238 2.1676.714 3.0652.494.8977 1.16 1.5948 1.997 2.0913.856.4774 1.817.7161 2.882.7161z"/><path d="m547.75 69.877h-12.557c.115 1.566.714 2.836 1.798 3.8101 1.084.9548 2.454 1.4323 4.109 1.4323.933 0 1.789-.1623 2.568-.487.78-.3437 1.456-.8403 2.027-1.4897l1.141 1.3178c-.666.8021-1.503 1.4133-2.511 1.8334-.99.4202-2.083.6303-3.282.6303-1.541 0-2.911-.3248-4.109-.9741-1.179-.6684-2.102-1.5851-2.768-2.75-.666-1.165-.999-2.4828-.999-3.9534 0-1.4705.314-2.7883.942-3.9532.647-1.165 1.522-2.0722 2.625-2.7215 1.122-.6493 2.378-.9739 3.767-.9739s2.635.3246 3.738.9739c1.104.6493 1.969 1.5565 2.597 2.7215.628 1.1459.942 2.4636.942 3.9532zm-7.249-6.5315c-1.446 0-2.664.4679-3.653 1.4037-.97.9167-1.521 2.1199-1.655 3.6095h10.644c-.133-1.4896-.694-2.6928-1.683-3.6095-.971-.9358-2.188-1.4037-3.653-1.4037z"/><path d="m563.48 65.81v1.8907l-12.413 4.9845v-1.7761l10.501-4.1537-10.501-4.1539v-1.8047z"/><path d="m4.2805 46.689c0 .7066-.10463 1.2318-.3139 1.5755-.20928.3438-.55173.6016-1.0274.7735.47562.1719.81808.4297 1.0274.7735.20927.3437.3139.869.3139 1.5756v7.0758c0 1.5278.72295 2.2918 2.1688 2.2918h.7705v1.6901h-1.0558c-2.6064 0-3.9096-1.2701-3.9096-3.81v-7.2764c0-.974-.42807-1.461-1.2842-1.461h-.9703v-1.7188h.9703c.85614 0 1.2842-.487 1.2842-1.461v-7.2764c0-2.5399 1.3032-3.8099 3.9096-3.8099h1.0558v1.6901h-.7705c-1.4459 0-2.1688.7639-2.1688 2.2917z"/><path d="m29.364 41.705c1.8835 0 3.358.5442 4.4233 1.6329 1.0845 1.0886 1.6267 2.6928 1.6267 4.8126v8.7373h-2.0262v-8.5368c0-1.566-.3805-2.7597-1.1415-3.5809-.742-.8212-1.7978-1.2318-3.1676-1.2318-1.5601 0-2.7872.487-3.6814 1.461-.8941.9549-1.3412 2.2822-1.3412 3.9819v7.9066h-2.0261v-8.5368c0-1.566-.3806-2.7597-1.1416-3.5809-.742-.8212-1.8073-1.2318-3.1961-1.2318-1.5411 0-2.7681.487-3.6814 1.461-.8941.9549-1.3412 2.2822-1.3412 3.9819v7.9066h-2.0261v-15.068h1.9405v2.7501c.5327-.9166 1.2746-1.6232 2.2259-2.1198.9512-.4966 2.0452-.7448 3.2818-.7448 1.2556 0 2.3401.2673 3.2533.8021.9321.5347 1.6265 1.3273 2.0832 2.3777.5517-.9931 1.3412-1.7665 2.3685-2.3204 1.0464-.573 2.2355-.8594 3.5672-.8594z"/><path d="m46.16 41.703c1.9596 0 3.4626.4966 4.5089 1.4897 1.0464.9739 1.5696 2.4254 1.5696 4.3543v9.3386h-1.9406v-2.349c-.4565.783-1.1319 1.3941-2.0261 1.8334-.8752.4392-1.9215.6588-3.1391.6588-1.6742 0-3.006-.401-3.9952-1.2031-.9894-.8021-1.484-1.8621-1.484-3.1798 0-1.2796.4566-2.3109 1.3698-3.0939.9322-.783 2.4067-1.1745 4.4233-1.1745h4.7657v-.9167c0-1.2987-.3614-2.2823-1.0844-2.9507-.7229-.6875-1.7788-1.0313-3.1676-1.0313-.9513 0-1.8645.1624-2.7396.487-.8752.3056-1.6267.7353-2.2545 1.2891l-.9132-1.5183c.761-.6493 1.6742-1.1458 2.7396-1.4896 1.0654-.3628 2.1878-.5443 3.3674-.5443zm-.7134 13.722c1.1415 0 2.1213-.2578 2.9394-.7735.818-.5347 1.4268-1.2986 1.8263-2.2917v-2.4637h-4.7086c-2.5684 0-3.8526.8976-3.8526 2.6929 0 .8785.333 1.5756.9988 2.0912.6659.4966 1.5981.7448 2.7967.7448z"/><path d="m59.682 44.768c.4756-1.0122 1.1795-1.7761 2.1118-2.2917.9512-.5157 2.1212-.7735 3.5101-.7735v1.9766l-.4852-.0286c-1.579 0-2.8157.487-3.7098 1.461-.8942.974-1.3413 2.3395-1.3413 4.0965v7.6774h-2.0262v-15.068h1.9406v2.9506-.0001z"/><path d="m82.728 41.818v13.235c0 2.5591-.6279 4.4499-1.8836 5.6721-1.236 1.2414-3.1103 1.8621-5.6216 1.8621-1.3888 0-2.711-.2101-3.9667-.6303-1.2366-.4011-2.245-.9644-3.0249-1.6902l1.0273-1.5469c.7229.6493 1.5981 1.1554 2.6254 1.5183 1.0464.3629 2.1403.5443 3.2818.5443 1.9025 0 3.3008-.4488 4.1953-1.3464.8935-.8785 1.3407-2.2536 1.3407-4.1252v-1.9193c-.6271.9549-1.4551 1.6806-2.4824 2.1771-1.0084.4966-2.1308.7449-3.3675.7449-1.4078 0-2.692-.3056-3.8525-.9167-1.1415-.6302-2.0452-1.4992-2.7111-2.6069-.6468-1.1268-.9702-2.3968-.9702-3.81 0-1.4133.3234-2.6738.9702-3.7815.6659-1.1076 1.5696-1.967 2.7111-2.5782 1.1415-.6111 2.4256-.9167 3.8525-.9167 1.2747 0 2.4257.2578 3.453.7735 1.0277.5156 1.8546 1.2604 2.4825 2.2345v-2.8934h1.9407v.0001zm-7.6764 12.691c1.0844 0 2.0642-.2292 2.9393-.6876.8752-.4774 1.5509-1.1363 2.0266-1.9766.4939-.8403.7412-1.7952.7412-2.8647s-.2473-2.0149-.7412-2.836c-.4757-.8403-1.1514-1.4897-2.0266-1.948-.8561-.4775-1.8358-.7162-2.9393-.7162-1.0844 0-2.0642.2291-2.9394.6875-.8561.4584-1.5315 1.1077-2.0261 1.948-.4756.8403-.7134 1.7952-.7134 2.8647s.2378 2.0244.7134 2.8647c.4946.8403 1.17 1.4992 2.0261 1.9766.8752.4584 1.855.6876 2.9394.6876z"/><path d="m88.397 41.818h2.0264v15.068h-2.0264zm1.0274-3.2943c-.4185 0-.7705-.1433-1.056-.4297-.2854-.2865-.4281-.6303-.4281-1.0313 0-.3819.1427-.7162.4281-1.0026.2855-.2866.6375-.4297 1.056-.4297.4186 0 .7706.1431 1.056.4297.2855.2673.4282.5919.4282.9739 0 .4202-.1427.7735-.4282 1.06-.2854.2864-.6374.4297-1.056.4297z"/><path d="m103.71 41.705c1.884 0 3.377.5539 4.48 1.6615 1.123 1.0886 1.684 2.6832 1.684 4.784v8.7373h-2.026v-8.5368c0-1.566-.39-2.7597-1.171-3.5809-.779-.8212-1.892-1.2318-3.338-1.2318-1.617 0-2.902.487-3.853 1.461-.9315.9549-1.3977 2.2822-1.3977 3.9819v7.9066h-2.0264v-15.068h1.9408v2.7788c.5518-.9167 1.3121-1.6233 2.2823-2.1198.99-.5157 2.131-.7735 3.425-.7735z"/><path d="m115.57 44.826c-.417 0-.779-.1527-1.083-.4583-.286-.3056-.428-.678-.428-1.1173 0-.4392.142-.8021.428-1.0885.304-.3056.666-.4584 1.083-.4584.419 0 .78.1528 1.085.4584.304.2864.457.6493.457 1.0885 0 .4393-.153.8117-.457 1.1173-.305.3056-.666.4583-1.085.4583zm0 12.204c-.417 0-.779-.1528-1.083-.4584-.286-.3055-.428-.6779-.428-1.1172 0-.4392.142-.8021.428-1.0886.304-.3056.666-.4583 1.083-.4583.419 0 .78.1527 1.085.4583.304.2865.457.6494.457 1.0886 0 .4393-.153.8117-.457 1.1172-.305.3056-.666.4584-1.085.4584z"/><path d="m141.19 55.054v1.8334h-14.012v-1.461l8.304-8.1646c1.047-1.0313 1.751-1.9193 2.112-2.6642.381-.7639.571-1.5278.571-2.2917 0-1.1841-.409-2.1008-1.227-2.7501-.799-.6684-1.95-1.0027-3.453-1.0027-2.34 0-4.157.7449-5.45 2.2345l-1.456-1.2604c.78-.9167 1.769-1.6234 2.968-2.1199 1.217-.4965 2.587-.7449 4.109-.7449 2.036 0 3.643.4871 4.823 1.461 1.199.955 1.798 2.2727 1.798 3.9534 0 1.0312-.228 2.0243-.685 2.9792s-1.322 2.053-2.597 3.2944l-6.792 6.7034h10.987z"/><path d="m151.62 57.059c-1.541 0-2.921-.4107-4.139-1.2318-1.198-.8212-2.14-1.9958-2.824-3.5236-.666-1.547-.999-3.3612-.999-5.4429s.333-3.8865.999-5.4143c.684-1.5469 1.626-2.731 2.824-3.5523 1.218-.8212 2.598-1.2318 4.139-1.2318 1.54 0 2.91.4106 4.109 1.2318 1.217.8213 2.169 2.0054 2.854 3.5523.684 1.5278 1.026 3.3326 1.026 5.4143s-.342 3.8959-1.026 5.4429c-.685 1.5278-1.637 2.7024-2.854 3.5236-1.199.8211-2.569 1.2318-4.109 1.2318zm0-1.8907c1.16 0 2.177-.3247 3.053-.974.894-.6493 1.588-1.5947 2.083-2.836.495-1.2414.742-2.7406.742-4.4976s-.247-3.2562-.742-4.4976-1.189-2.1867-2.083-2.836c-.876-.6494-1.893-.9741-3.053-.9741-1.161 0-2.188.3247-3.083.9741-.875.6493-1.56 1.5946-2.055 2.836-.494 1.2414-.742 2.7406-.742 4.4976s.248 3.2562.742 4.4976c.495 1.2413 1.18 2.1867 2.055 2.836.895.6493 1.922.974 3.083.974z"/><path d="m171.62 41.703c1.407 0 2.682.3246 3.823.9739 1.142.6303 2.036 1.5279 2.683 2.6929.647 1.1649.971 2.4923.971 3.9819 0 1.5088-.324 2.8456-.971 4.0106s-1.541 2.0721-2.683 2.7214c-1.122.6303-2.397.9454-3.823.9454-1.218 0-2.321-.2483-3.311-.7448-.97-.5157-1.769-1.2605-2.397-2.2345v8.3936h-2.026v-20.626h1.94v2.9793c.609-.9931 1.408-1.757 2.398-2.2917 1.008-.5348 2.14-.8022 3.396-.8022v.0003zm-.143 13.521c1.047 0 1.997-.2387 2.853-.7161.857-.4966 1.523-1.1937 1.998-2.0913.495-.8976.742-1.9193.742-3.0652s-.247-2.1581-.742-3.0366c-.475-.8976-1.141-1.5947-1.998-2.0912-.856-.4966-1.806-.7449-2.853-.7449-1.065 0-2.026.2483-2.882.7449-.838.4965-1.504 1.1936-1.998 2.0912-.476.8785-.714 1.8907-.714 3.0366s.238 2.1676.714 3.0652c.494.8976 1.16 1.5947 1.998 2.0913.856.4774 1.817.7161 2.882.7161z"/><path d="m192.27 56.887-4.765-6.3024-4.794 6.3024h-2.284l5.936-7.7346-5.65-7.3337h2.283l4.509 5.9013 4.508-5.9013h2.226l-5.65 7.3337 5.993 7.7346z"/><path d="m197.86 44.826c-.418 0-.779-.1527-1.083-.4583-.286-.3056-.428-.678-.428-1.1173 0-.4392.142-.8021.428-1.0885.304-.3056.665-.4584 1.083-.4584.419 0 .78.1528 1.085.4584.304.2864.457.6493.457 1.0885 0 .4393-.153.8117-.457 1.1173-.305.3056-.666.4583-1.085.4583zm.029 9.0809c.438 0 .799.1527 1.084.4584.286.2864.429.6493.429 1.0885 0 .2292-.038.4775-.115.7448-.057.2674-.152.573-.285.9168l-1.199 3.9532h-1.369l.97-4.1538c-.304-.0955-.551-.2674-.742-.5157-.19-.2673-.285-.5824-.285-.9453 0-.4392.143-.8021.428-1.0885.286-.3057.646-.4584 1.084-.4584z"/><path d="m208.71 48.178v1.7188h-.971c-.856 0-1.284.487-1.284 1.461v7.2764c0 2.5399-1.294 3.81-3.881 3.81h-1.084v-1.6901h.77c1.446 0 2.169-.764 2.169-2.2918v-7.0758c0-.7066.104-1.2319.314-1.5756.209-.3438.551-.6016 1.027-.7735-.476-.1719-.818-.4297-1.027-.7735-.21-.3437-.314-.8689-.314-1.5755v-7.0759c0-1.5278-.723-2.2917-2.169-2.2917h-.77v-1.6901h1.084c2.587 0 3.881 1.27 3.881 3.8099v7.2764c0 .974.428 1.461 1.284 1.461z"/><path d="m1123.3 14.055-10.51 4.1539 10.51 4.1538v1.7761l-12.42-4.9846v-1.8907l12.42-5.0132z"/><path d="m1141.8 6.9785v21.256h-1.94v-2.9793c-.61 1.0122-1.42 1.7857-2.43 2.3204-.99.5348-2.11.8021-3.37.8021-1.4 0-2.68-.3247-3.82-.974-1.14-.6494-2.04-1.5565-2.69-2.7214-.64-1.1651-.96-2.4923-.96-3.982 0-1.4896.32-2.8169.96-3.9819.65-1.165 1.55-2.0626 2.69-2.6928 1.14-.6494 2.42-.974 3.82-.974 1.22 0 2.32.2578 3.28.7734 1 .4966 1.8 1.2319 2.43 2.2058v-9.0522h2.03v-.00023zm-7.56 19.594c1.04 0 1.98-.2387 2.82-.7161.86-.4965 1.52-1.1936 2-2.0913.49-.8975.74-1.9192.74-3.0652 0-1.1458-.25-2.1676-.74-3.0652-.48-.8976-1.14-1.5851-2-2.0626-.84-.4965-1.78-.7448-2.82-.7448-1.07 0-2.03.2483-2.89.7448-.83.4775-1.5 1.165-2 2.0626-.47.8976-.71 1.9194-.71 3.0652 0 1.146.24 2.1677.71 3.0652.5.8977 1.17 1.5948 2 2.0913.86.4774 1.82.7161 2.89.7161z"/><path d="m1147.5 13.166h2.03v15.068h-2.03zm1.03-3.2944c-.42 0-.77-.14326-1.06-.4297-.28-.28645-.42-.63024-.42-1.0313 0-.38198.14-.71617.42-1.0027.29-.28647.64-.4297 1.06-.4297s.77.14323 1.05.4297c.29.26737.43.59203.43.97403 0 .42016-.14.7735-.43 1.06-.28.28644-.63.4297-1.05.4297z"/><path d="m1167.7 13.166-6.67 15.068h-2.09l-6.65-15.068h2.12l5.62 12.834 5.68-12.834z"/><path d="m1182.1 17.263v1.8907l-12.4 4.9846v-1.7761l10.49-4.1538-10.49-4.1539v-1.8047z"/><path d="m846.86 64.74c0 .522-.079.9167-.246 1.184-.166.2674-.428.4584-.8.573.372.1145.634.3055.8.5729.167.2674.246.6621.246 1.1841v4.1825c0 .993.476 1.4895 1.411 1.4895h.476v1.5088h-.84c-.952 0-1.665-.2419-2.149-.7257-.483-.4711-.721-1.1713-.721-2.1008v-4.3925c0-.6366-.286-.9549-.856-.9549h-.666v-1.5279h.666c.57 0 .856-.3182.856-.9548v-4.3926c0-.9294.238-1.6297.721-2.1007.484-.4839 1.197-.7258 2.149-.7258h.84v1.5087h-.476c-.935 0-1.411.4966-1.411 1.4897z"/><path d="m866.13 61.607-3.766 10.122h-1.744l-2.917-7.6773-2.95 7.6773h-1.744l-3.75-10.122h1.729l2.933 8.0596 3.044-8.0596h1.538l2.989 8.0977 3.005-8.0977z"/><path d="m867.95 61.609h1.831v10.122h-1.831zm.911-1.948c-.349 0-.65-.1146-.888-.3437-.23-.2293-.348-.5094-.348-.8404s.118-.6111.348-.8403c.238-.2419.539-.3629.888-.3629.357 0 .65.1147.88.3438.238.2165.357.4902.357.8212 0 .3438-.119.6366-.357.8786-.23.2291-.523.3437-.88.3437z"/><path d="m882.78 57.559v14.171h-1.745v-1.6042c-.412.5602-.919.9867-1.546 1.2796-.618.2928-1.308.4392-2.053.4392-.975 0-1.855-.2164-2.624-.6493-.777-.4329-1.387-1.0377-1.823-1.8143-.436-.7894-.651-1.6934-.651-2.7119 0-1.0186.215-1.9162.651-2.6929.436-.7766 1.046-1.3813 1.823-1.8142.769-.4329 1.649-.6494 2.624-.6494.722 0 1.388.14 1.998.4202.61.2674 1.118.6684 1.522 1.2031v-5.5766h1.824zm-5.193 12.681c.634 0 1.213-.1463 1.736-.4392.515-.3055.92-.7257 1.213-1.2605.293-.5474.436-1.1713.436-1.8715 0-.7004-.143-1.3178-.436-1.8526-.293-.5474-.698-.9676-1.213-1.2604-.523-.2929-1.102-.4393-1.736-.4393-.642 0-1.229.1464-1.752.4393-.508.2928-.912.713-1.213 1.2604-.294.5348-.436 1.1522-.436 1.8526 0 .7002.142 1.3241.436 1.8715.301.5348.705.955 1.213 1.2605.523.2929 1.11.4392 1.752.4392z"/><path d="m892.13 71.138c-.27.2291-.595.4073-.991.5347-.397.1146-.801.1719-1.221.1719-1.015 0-1.8-.2738-2.355-.8213s-.84-1.3304-.84-2.349v-5.5575h-1.713v-1.5088h1.713v-2.2153h1.831v2.2153h2.886v1.5088h-2.886v5.4811c0 .5474.127.9676.397 1.2605.277.2928.673.4392 1.181.4392.555 0 1.03-.1591 1.427-.4775z"/><path d="m899.74 61.512c1.284 0 2.299.3756 3.044 1.1268.761.7384 1.142 1.827 1.142 3.2657v5.8249h-1.824v-5.6148c0-.9803-.238-1.7188-.706-2.2153-.467-.4965-1.141-.7449-2.013-.7449-.991 0-1.768.2929-2.339.8785-.571.573-.856 1.4006-.856 2.4828v5.2137h-1.832v-14.171h1.832v5.4811c.38-.4837.872-.8594 1.482-1.1267.619-.2674 1.308-.4011 2.07-.4011z"/><path d="m907.75 64.128c-.357 0-.658-.121-.912-.3629-.254-.2546-.38-.5728-.38-.9548 0-.3693.126-.6748.38-.9168.254-.2546.555-.3819.912-.3819s.65.1209.896.3628c.237.242.356.5539.356.9359s-.126.7002-.38.9548c-.238.2419-.531.3629-.872.3629zm0 7.7156c-.357 0-.658-.121-.912-.3629-.254-.2546-.38-.5729-.38-.9548 0-.3693.126-.6748.38-.9168.254-.2546.555-.3819.912-.3819s.65.1209.896.3628c.237.2419.356.5539.356.9359 0 .3819-.126.7002-.38.9548-.238.2419-.531.3629-.872.3629z"/><path d="m920.04 58.361v13.368h-1.879v-11.707h-3.005v-1.6615h4.884v-.0002z"/><path d="m928.36 71.883c-1.054 0-1.99-.2674-2.814-.8022-.809-.5474-1.451-1.3368-1.919-2.3681-.467-1.0313-.705-2.2535-.705-3.6668 0-1.4132.238-2.6355.705-3.6668.468-1.0313 1.11-1.8143 1.919-2.3491.824-.5474 1.76-.8212 2.814-.8212 1.039 0 1.967.2738 2.783.8212.825.5348 1.467 1.3178 1.934 2.3491.476 1.0313.706 2.2536.706 3.6668 0 1.4133-.23 2.6355-.706 3.6668-.467 1.0313-1.109 1.8207-1.934 2.3681-.816.5348-1.744.8022-2.783.8022zm0-1.6998c1.071 0 1.919-.4392 2.553-1.3177.642-.8785.967-2.1517.967-3.8196s-.325-2.9411-.967-3.8196c-.634-.8785-1.482-1.3178-2.553-1.3178-1.078 0-1.942.4393-2.584 1.3178-.634.8785-.951 2.1517-.951 3.8196s.317 2.9411.951 3.8196c.642.8785 1.506 1.3177 2.584 1.3177z"/><path d="m941.84 61.512c.975 0 1.855.2165 2.624.6493.777.4329 1.38 1.0377 1.808 1.8143.444.7767.666 1.6743.666 2.6929 0 1.0185-.222 1.9225-.666 2.7118-.428.7767-1.031 1.3815-1.808 1.8144-.769.4329-1.649.6493-2.624.6493-.721 0-1.387-.1401-1.998-.4201-.594-.2801-1.102-.6876-1.522-1.2223v5.2328h-1.823v-13.827h1.744v1.6043c.412-.5603.919-.9804 1.546-1.2605.618-.2929 1.308-.4393 2.053-.4393v-.0003zm-.151 8.7277c.643 0 1.221-.1463 1.729-.4392.523-.3055.927-.7257 1.221-1.2605.301-.5474.451-1.1713.451-1.8715 0-.7003-.15-1.3178-.451-1.8526-.294-.5474-.698-.9676-1.221-1.2604-.508-.2928-1.086-.4393-1.729-.4393-.634 0-1.213.1528-1.736.4583-.507.2929-.912.7067-1.213 1.2414-.293.5348-.436 1.1523-.436 1.8526 0 .7002.143 1.3241.436 1.8715.294.5348.698.955 1.213 1.2605.523.2929 1.102.4392 1.736.4392z"/><path d="m955.55 71.729-2.909-3.8768-2.949 3.8768h-2.03l3.972-5.1755-3.782-4.9464h2.03l2.783 3.6477 2.759-3.6477h1.997l-3.805 4.9464 4.011 5.1755z"/><path d="m959.83 64.128c-.357 0-.658-.121-.911-.3629-.254-.2546-.381-.5728-.381-.9548 0-.3693.127-.6748.381-.9168.253-.2546.554-.3819.911-.3819s.658.1209.896.3628c.238.242.357.5539.357.9359s-.127.7002-.373.9548c-.245.2419-.539.3629-.88.3629zm.024 5.0992c.349 0 .642.1273.872.3819.238.242.357.5475.357.9168 0 .191-.024.3755-.072.5538-.039.1782-.118.4519-.245.8212l-.896 2.6546h-1.197l.705-2.8456c-.245-.0891-.444-.2355-.594-.4393-.135-.2164-.206-.4647-.206-.7447 0-.382.119-.694.356-.9359.246-.2419.547-.3628.92-.3628z"/><path d="m967.52 65.732v1.5279h-.642c-.563 0-.84.3183-.84.9549v4.3925c0 .9295-.246 1.6297-.738 2.1008-.483.4838-1.205.7257-2.156.7257h-.833v-1.5087h.452c.968 0 1.451-.4966 1.451-1.4896v-4.1825c0-.5347.072-.9294.23-1.184.159-.2675.428-.4585.793-.573-.365-.1146-.634-.2992-.793-.5539-.158-.2673-.23-.6684-.23-1.2031v-4.1825c0-.9931-.483-1.4897-1.451-1.4897h-.452v-1.5087h.833c.951 0 1.673.2419 2.156.7258.492.471.738 1.1713.738 2.1007v4.3926c0 .6366.277.9548.84.9548z"/><path d="m988.14 112.73-10.505 4.153 10.505 4.154v1.776l-12.415-4.985v-1.89l12.415-5.013z"/><path d="m1000.6 111.73c1.88 0 3.38.553 4.48 1.661 1.13 1.088 1.68 2.683 1.68 4.784v8.737h-2.02v-8.536c0-1.567-.39-2.76-1.17-3.582-.78-.82-1.9-1.231-3.34-1.231-1.616 0-2.901.487-3.852 1.461-.935.955-1.395 2.282-1.395 3.982v7.906h-2.03v-21.256h2.03v8.823c.547-.878 1.308-1.555 2.283-2.034.967-.477 2.077-.715 3.334-.715z"/><path d="m1024.4 125.08v1.834h-14.01v-1.461l8.3-8.164c1.05-1.032 1.75-1.919 2.11-2.665.38-.763.57-1.527.57-2.292 0-1.183-.41-2.1-1.22-2.749-.8-.669-1.95-1.003-3.46-1.003-2.34 0-4.15.745-5.44 2.235l-1.46-1.261c.77-.916 1.76-1.624 2.96-2.12 1.22-.496 2.59-.744 4.12-.744 2.03 0 3.63.486 4.82 1.46 1.19.955 1.8 2.273 1.8 3.953 0 1.032-.23 2.025-.69 2.98s-1.32 2.053-2.6 3.294l-6.79 6.703z"/><path d="m1039.9 115.94v1.891l-12.42 4.984v-1.776l10.51-4.154-10.51-4.153v-1.805z"/><path d="m721.76 116.77c0 .707-.105 1.232-.314 1.575-.209.345-.551.602-1.027.774.476.172.818.43 1.027.773.209.344.314.869.314 1.576v7.076c0 1.528.723 2.291 2.169 2.291h.77v1.691h-1.055c-2.606 0-3.91-1.271-3.91-3.81v-7.276c0-.975-.428-1.462-1.284-1.462h-.97v-1.719h.97c.856 0 1.284-.486 1.284-1.46v-7.277c0-2.54 1.304-3.81 3.91-3.81h1.055v1.69h-.77c-1.446 0-2.169.765-2.169 2.292z"/><path d="m741.82 105.72v21.256h-1.941v-2.979c-.609 1.012-1.417 1.786-2.425 2.32-.989.535-2.112.802-3.368.802-1.408 0-2.683-.324-3.823-.974-1.142-.649-2.036-1.556-2.683-2.721s-.971-2.492-.971-3.982.324-2.817.971-3.982 1.541-2.062 2.683-2.692c1.14-.65 2.415-.975 3.823-.975 1.218 0 2.312.258 3.282.774.99.496 1.798 1.231 2.426 2.206v-9.053zm-7.562 19.595c1.046 0 1.988-.239 2.825-.717.856-.496 1.521-1.193 1.997-2.091.495-.897.742-1.919.742-3.065s-.247-2.167-.742-3.066c-.476-.897-1.141-1.584-1.997-2.062-.837-.496-1.779-.745-2.825-.745-1.066 0-2.027.249-2.883.745-.836.478-1.502 1.165-1.997 2.062-.476.899-.714 1.92-.714 3.066s.238 2.168.714 3.065c.495.898 1.161 1.595 1.997 2.091.856.478 1.817.717 2.883.717z"/><path d="m747.46 111.9h2.026v15.068h-2.026zm1.028-3.294c-.419 0-.771-.144-1.057-.43-.285-.287-.428-.631-.428-1.032 0-.381.143-.715.428-1.002.286-.286.638-.43 1.057-.43.417 0 .769.144 1.055.43.285.267.428.592.428.974 0 .42-.143.773-.428 1.06-.286.286-.638.43-1.055.43z"/><path d="m759.15 127.11c-1.218 0-2.388-.172-3.51-.515-1.103-.363-1.969-.812-2.597-1.346l.913-1.605c.628.497 1.418.907 2.368 1.232.952.306 1.941.459 2.969.459 1.37 0 2.378-.21 3.025-.631.665-.439.998-1.05.998-1.834 0-.553-.181-.983-.541-1.288-.362-.325-.819-.563-1.37-.716-.552-.173-1.285-.335-2.198-.488-1.218-.229-2.198-.458-2.94-.687-.741-.248-1.378-.659-1.911-1.232-.514-.573-.771-1.365-.771-2.378 0-1.26.524-2.292 1.57-3.093 1.046-.803 2.501-1.204 4.366-1.204.97 0 1.941.134 2.911.401.97.249 1.769.583 2.397 1.003l-.885 1.633c-1.236-.86-2.711-1.289-4.423-1.289-1.294 0-2.274.229-2.94.687-.647.459-.969 1.06-.969 1.805 0 .573.18 1.032.541 1.375.381.344.847.602 1.399.773.551.153 1.313.315 2.283.488 1.199.229 2.159.458 2.882.687s1.341.621 1.855 1.174c.514.555.77 1.318.77 2.292 0 1.318-.551 2.369-1.655 3.152-1.084.763-2.596 1.145-4.537 1.145z"/><path d="m776.83 111.78c1.408 0 2.682.325 3.824.975 1.141.63 2.036 1.527 2.682 2.692.647 1.166.971 2.492.971 3.982 0 1.509-.324 2.846-.971 4.011-.646 1.164-1.541 2.072-2.682 2.721-1.123.63-2.397.945-3.824.945-1.218 0-2.321-.248-3.311-.744-.97-.516-1.768-1.26-2.396-2.235v8.394h-2.027v-20.626h1.941v2.979c.609-.993 1.407-1.757 2.397-2.291 1.008-.536 2.14-.803 3.396-.803zm-.143 13.522c1.047 0 1.998-.239 2.854-.717.856-.496 1.522-1.193 1.997-2.091.495-.897.742-1.919.742-3.065s-.247-2.158-.742-3.037c-.475-.897-1.141-1.594-1.997-2.091-.856-.496-1.807-.745-2.854-.745-1.065 0-2.026.249-2.882.745-.837.497-1.503 1.194-1.997 2.091-.476.879-.714 1.891-.714 3.037s.238 2.168.714 3.065c.494.898 1.16 1.595 1.997 2.091.856.478 1.817.717 2.882.717z"/><path d="m788.43 105.72h2.025v21.256h-2.025z"/><path d="m801.36 111.78c1.958 0 3.457.497 4.503 1.49 1.047.974 1.57 2.425 1.57 4.354v9.339h-1.935v-2.349c-.459.784-1.133 1.394-2.029 1.834-.872.439-1.919.658-3.14.658-1.672 0-3.004-.401-3.995-1.203-.991-.801-1.483-1.862-1.483-3.18 0-1.279.452-2.311 1.372-3.093.927-.783 2.402-1.175 4.423-1.175h4.765v-.917c0-1.299-.365-2.282-1.086-2.95-.721-.688-1.776-1.032-3.171-1.032-.952 0-1.863.163-2.735.487-.88.306-1.625.736-2.26 1.29l-.911-1.519c.761-.649 1.672-1.145 2.743-1.489 1.062-.363 2.188-.545 3.369-.545zm-.714 13.723c1.142 0 2.117-.258 2.934-.774.824-.535 1.427-1.299 1.831-2.292v-2.464h-4.709c-2.569 0-3.853.898-3.853 2.693 0 .879.333 1.576.999 2.091.666.497 1.593.746 2.798.746z"/><path d="m825.3 111.9-7.5 16.873c-.61 1.414-1.316 2.416-2.116 3.009-.801.592-1.76.888-2.878.888-.722 0-1.404-.115-2.03-.344s-1.165-.573-1.625-1.032l.943-1.517c.761.763 1.673 1.145 2.736 1.145.689 0 1.268-.191 1.744-.573.491-.382.951-1.031 1.371-1.948l.65-1.461-6.699-15.04h2.109l5.653 12.806 5.644-12.806z"/><path d="m828.55 114.91c-.42 0-.784-.153-1.086-.458-.285-.306-.428-.679-.428-1.118s.143-.802.428-1.088c.302-.306.666-.459 1.086-.459.413 0 .777.153 1.079.459.309.286.46.649.46 1.088s-.151.812-.46 1.118c-.302.305-.666.458-1.079.458zm0 12.203c-.42 0-.784-.153-1.086-.458-.285-.306-.428-.678-.428-1.117s.143-.803.428-1.089c.302-.305.666-.458 1.086-.458.413 0 .777.153 1.079.458.309.286.46.65.46 1.089s-.151.811-.46 1.117c-.302.305-.666.458-1.079.458z"/><path d="m849.56 111.79c1.403 0 2.68.325 3.821.975 1.142.63 2.038 1.527 2.68 2.692.65 1.166.975 2.492.975 3.982s-.325 2.817-.975 3.982c-.642 1.165-1.538 2.072-2.68 2.722-1.141.649-2.418.973-3.821.973-1.261 0-2.386-.267-3.401-.802-.983-.534-1.784-1.308-2.394-2.32v2.979h-1.943v-21.256h2.03v9.053c.626-.974 1.427-1.709 2.394-2.206.991-.516 2.093-.774 3.314-.774zm-.143 13.522c1.047 0 1.998-.239 2.854-.717.857-.496 1.523-1.193 1.998-2.091.492-.897.737-1.919.737-3.065s-.245-2.167-.737-3.065c-.475-.898-1.141-1.585-1.998-2.063-.856-.496-1.807-.745-2.854-.745-1.07 0-2.029.249-2.885.745-.833.478-1.499 1.165-1.998 2.063-.476.898-.714 1.919-.714 3.065s.238 2.168.714 3.065c.499.898 1.165 1.595 1.998 2.091.856.478 1.815.717 2.885.717z"/><path d="m861.21 105.72h2.021v21.256h-2.021z"/><path d="m875 127.11c-1.443 0-2.743-.324-3.908-.973-1.158-.669-2.069-1.586-2.735-2.75-.666-1.166-.999-2.483-.999-3.954s.333-2.788.999-3.953c.666-1.166 1.577-2.072 2.735-2.721 1.165-.65 2.465-.975 3.908-.975 1.451 0 2.751.325 3.917.975 1.157.649 2.061 1.555 2.711 2.721.666 1.165.999 2.482.999 3.953s-.333 2.788-.999 3.954c-.65 1.164-1.554 2.081-2.711 2.75-1.166.649-2.466.973-3.917.973zm0-1.804c1.071 0 2.022-.239 2.854-.717.857-.496 1.522-1.193 1.998-2.091.476-.897.714-1.919.714-3.065s-.238-2.167-.714-3.065-1.141-1.585-1.998-2.063c-.832-.496-1.783-.745-2.854-.745-1.062 0-2.021.249-2.878.745-.84.478-1.506 1.165-1.997 2.063-.476.898-.714 1.919-.714 3.065s.238 2.168.714 3.065c.491.898 1.157 1.595 1.997 2.091.857.478 1.816.717 2.878.717z"/><path d="m893 127.11c-1.483 0-2.815-.324-3.996-.973-1.157-.65-2.069-1.557-2.735-2.722-.666-1.184-.999-2.511-.999-3.982s.333-2.788.999-3.953c.666-1.166 1.578-2.072 2.735-2.721 1.181-.65 2.513-.975 3.996-.975 1.292 0 2.441.258 3.456.774 1.023.496 1.832 1.231 2.426 2.206l-1.514 1.031c-.499-.745-1.126-1.298-1.887-1.662-.761-.382-1.585-.573-2.481-.573-1.086 0-2.062.249-2.942.745-.856.478-1.53 1.165-2.021 2.063-.476.898-.714 1.919-.714 3.065 0 1.165.238 2.196.714 3.094.491.879 1.165 1.566 2.021 2.062.88.478 1.856.717 2.942.717.896 0 1.72-.181 2.481-.545.761-.363 1.388-.916 1.887-1.661l1.514 1.031c-.594.975-1.403 1.719-2.426 2.235-1.03.496-2.18.744-3.456.744z"/><path d="m908.14 119.41-3.536 3.265v4.297h-2.029v-21.256h2.029v14.41l8.959-8.222h2.513l-6.422 6.159 7.024 8.909h-2.481z"/><path d="m919.96 114.91c-.421 0-.785-.153-1.086-.458-.286-.306-.429-.679-.429-1.118s.143-.802.429-1.088c.301-.306.665-.459 1.086-.459.412 0 .777.153 1.078.459.309.286.46.649.46 1.088s-.151.812-.46 1.118c-.301.305-.666.458-1.078.458zm.023 9.081c.437 0 .801.153 1.087.458.285.286.428.65.428 1.089 0 .229-.04.477-.111.745-.064.267-.159.572-.286.916l-1.205 3.953h-1.363l.967-4.153c-.301-.096-.555-.268-.745-.516-.191-.267-.286-.582-.286-.945 0-.439.143-.803.428-1.089.286-.305.65-.458 1.086-.458z"/><path d="m930.82 118.26v1.719h-.967c-.856 0-1.284.487-1.284 1.462v7.276c0 2.54-1.293 3.81-3.885 3.81h-1.086v-1.69h.777c1.443 0 2.164-.764 2.164-2.292v-7.076c0-.707.103-1.232.317-1.576.206-.343.547-.601 1.023-.773-.476-.172-.817-.429-1.023-.774-.214-.343-.317-.868-.317-1.575v-7.076c0-1.527-.721-2.292-2.164-2.292h-.777v-1.69h1.086c2.592 0 3.885 1.27 3.885 3.81v7.277c0 .974.428 1.46 1.284 1.46z"/><path d="m203.53 79.856c0 .5226-.083.9171-.248 1.1844s-.431.4582-.799.5727c.368.1146.634.3055.799.5736.165.2672.248.6618.248 1.1836v4.1825c0 .9935.469 1.4899 1.408 1.4899h.475v1.5082h-.837c-.951 0-1.668-.2419-2.15-.7255-.482-.4709-.723-1.1709-.723-2.1008v-4.3925c0-.6364-.284-.9545-.855-.9545h-.666v-1.5281h.666c.571 0 .855-.3182.855-.9553v-4.3922c0-.9294.241-1.6297.723-2.1007.482-.4839 1.199-.7258 2.15-.7258h.837v1.5087h-.475c-.939 0-1.408.4966-1.408 1.4897z"/><path d="m212.83 76.627c.977 0 1.852.2164 2.626.6493.773.4329 1.375 1.0377 1.807 1.8143.444.7762.666 1.6743.666 2.6925 0 1.019-.222 1.9226-.666 2.7125-.432.7763-1.034 1.3809-1.807 1.8136-.774.4335-1.649.6499-2.626.6499-.723 0-1.389-.14-1.998-.42-.596-.2808-1.103-.6881-1.522-1.2226v5.2325h-1.826v-13.827h1.75v1.6043c.406-.5603.92-.9804 1.541-1.2605.622-.2929 1.307-.4392 2.055-.4392zm-.152 8.7277c.647 0 1.224-.1464 1.731-.4391.52-.3055.926-.7263 1.218-1.2608.305-.5473.457-1.1709.457-1.8717 0-.7-.152-1.3173-.457-1.8518-.292-.5479-.698-.968-1.218-1.2609-.507-.2928-1.084-.4393-1.731-.4393-.634 0-1.211.1528-1.732.4584-.507.2929-.913.7067-1.217 1.2418-.292.5345-.438 1.1518-.438 1.8518 0 .7008.146 1.3244.438 1.8717.291.5345.697.9553 1.217 1.2608.521.2927 1.098.4391 1.732.4391z"/><path d="m224.78 86.959c-1.002 0-1.902-.2227-2.702-.669-.799-.4454-1.427-1.0563-1.883-1.8327-.444-.7899-.666-1.6808-.666-2.6743 0-.9927.222-1.8781.666-2.6544.456-.7893 1.084-1.4004 1.883-1.8333.8-.4456 1.7-.6684 2.702-.6684s1.896.2228 2.682.6684c.799.4329 1.421 1.044 1.865 1.8333.457.7763.685 1.6617.685 2.6544 0 .9935-.228 1.8844-.685 2.6743-.444.7764-1.066 1.3873-1.865 1.8327-.786.4463-1.68.669-2.682.669zm0-1.6044c.647 0 1.224-.1464 1.731-.4391.52-.3055.926-.7263 1.218-1.2608.291-.5473.437-1.1709.437-1.8717 0-.7-.146-1.3173-.437-1.8518-.292-.5479-.698-.968-1.218-1.2609-.507-.2928-1.084-.4393-1.731-.4393s-1.23.1465-1.75.4393c-.508.2929-.914.713-1.218 1.2609-.292.5345-.438 1.1518-.438 1.8518 0 .7008.146 1.3244.438 1.8717.304.5345.71.9553 1.218 1.2608.52.2927 1.103.4391 1.75.4391z"/><path d="m235.43 86.959c-.825 0-1.618-.1082-2.379-.3245-.761-.2291-1.357-.5163-1.788-.8599l.761-1.4509c.444.3182.983.5727 1.617.7636s1.275.2864 1.922.2864c1.597 0 2.396-.4582 2.396-1.3754 0-.3054-.107-.5472-.323-.7254s-.488-.3055-.818-.3818c-.317-.0891-.774-.1846-1.369-.2864-.812-.1273-1.478-.2736-1.998-.4391-.508-.1663-.945-.4463-1.313-.8408s-.552-.9482-.552-1.6617c0-.9164.381-1.6485 1.142-2.1959.761-.5603 1.782-.8403 3.063-.8403.672 0 1.344.0827 2.016.2482.673.1655 1.224.3884 1.656.6684l-.781 1.4515c-.824-.5348-1.794-.8021-2.91-.8021-.774 0-1.363.1273-1.769.3819-.406.2547-.609.5921-.609 1.0119 0 .3317.114.5927.342.7836.229.1909.508.3309.837.42.343.0891.819.1909 1.427.3054.811.14 1.465.2927 1.959.4582.508.1527.939.42 1.294.8026.355.3818.533.9164.533 1.6036 0 .9172-.393 1.649-1.18 2.1963-.773.5353-1.833.8026-3.176.8026z"/><path d="m242.06 76.722h1.827v10.122h-1.827zm.914-1.9479c-.356 0-.654-.1146-.895-.3438-.228-.2292-.342-.5093-.342-.8403s.114-.6111.342-.8403c.241-.2419.539-.3629.895-.3629.355 0 .646.1146.875.3438.241.2165.361.4902.361.8212 0 .3438-.12.6366-.361.8785-.229.2292-.52.3438-.875.3438z"/><path d="m253.05 86.251c-.266.2299-.596.4081-.989.5354-.393.1145-.799.1718-1.218.1718-1.015 0-1.801-.2736-2.359-.8217-.558-.5473-.837-1.33-.837-2.349v-5.5573h-1.712v-1.5087h1.712v-2.2153h1.826v2.2153h2.892v1.5087h-2.892v5.481c0 .548.133.968.4 1.2608.279.2927.672.439 1.18.439.558 0 1.033-.159 1.427-.4772z"/><path d="m255.26 76.722h1.826v10.122h-1.826zm.913-1.9479c-.355 0-.653-.1146-.894-.3438-.229-.2292-.343-.5093-.343-.8403s.114-.6111.343-.8403c.241-.2419.539-.3629.894-.3629s.647.1146.875.3438c.241.2165.362.4902.362.8212 0 .3438-.121.6366-.362.8785-.228.2292-.52.3438-.875.3438z"/><path d="m264.89 86.959c-1.002 0-1.903-.2227-2.702-.669-.799-.4454-1.427-1.0563-1.883-1.8327-.444-.7899-.666-1.6808-.666-2.6743 0-.9927.222-1.8781.666-2.6544.456-.7893 1.084-1.4004 1.883-1.8333.799-.4456 1.7-.6684 2.702-.6684s1.896.2228 2.682.6684c.799.4329 1.421 1.044 1.865 1.8333.456.7763.685 1.6617.685 2.6544 0 .9935-.229 1.8844-.685 2.6743-.444.7764-1.066 1.3873-1.865 1.8327-.786.4463-1.68.669-2.682.669zm0-1.6044c.647 0 1.223-.1464 1.731-.4391.52-.3055.926-.7263 1.218-1.2608.291-.5473.437-1.1709.437-1.8717 0-.7-.146-1.3173-.437-1.8518-.292-.5479-.698-.968-1.218-1.2609-.508-.2928-1.084-.4393-1.731-.4393s-1.23.1465-1.75.4393c-.508.2929-.914.713-1.218 1.2609-.292.5345-.438 1.1518-.438 1.8518 0 .7008.146 1.3244.438 1.8717.304.5345.71.9553 1.218 1.2608.52.2927 1.103.4391 1.75.4391z"/><path d="m278.03 76.627c1.281 0 2.296.3755 3.045 1.1267.761.7384 1.141 1.8268 1.141 3.2657v5.8252h-1.826v-5.6152c0-.98-.235-1.7187-.704-2.2152-.47-.4965-1.142-.7449-2.017-.7449-.99 0-1.77.2929-2.34.8785-.571.5727-.856 1.4007-.856 2.4826v5.2142h-1.827v-10.122h1.751v1.5278c.368-.5219.862-.923 1.483-1.2031.634-.2801 1.351-.4201 2.15-.4201z"/><path d="m286.03 79.241c-.356 0-.66-.121-.914-.3629-.253-.2546-.38-.5729-.38-.9548 0-.3693.127-.6748.38-.9168.254-.2546.558-.3819.914-.3819.355 0 .653.1209.894.3628.241.242.361.5539.361.9359 0 .3819-.126.7002-.38.9548-.241.2419-.533.3629-.875.3629zm0 7.7158c-.356 0-.66-.121-.914-.3628-.253-.2553-.38-.5735-.38-.9553 0-.3691.127-.6746.38-.9164.254-.2545.558-.3818.914-.3818.355 0 .653.1209.894.3627s.361.5537.361.9355-.126.7-.38.9553c-.241.2418-.533.3628-.875.3628z"/><path d="m296.77 78.422c.317-.5857.787-1.0313 1.408-1.3368.622-.3056 1.377-.4583 2.265-.4583v1.776c-.102-.0127-.241-.019-.419-.019-.989 0-1.77.2991-2.34.8975-.559.5853-.838 1.4261-.838 2.5207v5.0424h-1.825v-10.122h1.749v1.6997z"/><path d="m311.71 81.836c0 .14-.013.3253-.039.5544h-8.18c.114.8909.501 1.61 1.16 2.1581.673.5345 1.503.8018 2.492.8018 1.205 0 2.175-.4073 2.911-1.2226l1.009 1.1844c-.457.5345-1.028.9418-1.713 1.2226-.672.28-1.427.42-2.264.42-1.065 0-2.01-.2164-2.834-.6499-.825-.4454-1.465-1.0627-1.922-1.8518-.444-.7899-.666-1.6808-.666-2.6743 0-.98.216-1.8646.647-2.6544.444-.7893 1.046-1.4004 1.808-1.8333.773-.4456 1.642-.6685 2.605-.6685.964 0 1.821.2229 2.569.6685.761.4329 1.351 1.044 1.77 1.8333.431.7898.647 1.6935.647 2.7117zm-4.986-3.6665c-.874 0-1.61.2673-2.206.8021-.583.5347-.926 1.2353-1.027 2.1007h6.468c-.101-.8527-.45-1.5469-1.046-2.0816-.584-.5475-1.313-.8212-2.189-.8212z"/><path d="m314.25 72.674h1.826v14.171h-1.826z"/><path d="m323.23 76.627c1.394 0 2.46.3437 3.195 1.0313.749.6875 1.123 1.7123 1.123 3.0748v6.1115h-1.731v-1.3372c-.305.4709-.743.8336-1.313 1.089-.558.2418-1.224.3627-1.997.3627-1.129 0-2.036-.2736-2.721-.8217-.673-.5473-1.009-1.2664-1.009-2.1581 0-.8909.324-1.6036.971-2.1389.647-.5473 1.674-.821 3.082-.821h2.891v-.3627c0-.7899-.228-1.3943-.685-1.8144-.456-.4202-1.128-.6302-2.016-.6302-.596 0-1.179.1019-1.75.3056-.571.1909-1.053.4519-1.446.7829l-.761-1.375c.52-.4201 1.141-.7385 1.864-.9549.723-.2292 1.491-.3437 2.303-.3437zm-.419 8.9186c.698 0 1.299-.1527 1.807-.4582.507-.3182.875-.7636 1.103-1.3372v-1.4127h-2.815c-1.547 0-2.321.5218-2.321 1.5655 0 .5099.197.9108.59 1.2035s.938.4391 1.636.4391z"/><path d="m336.6 86.251c-.267.2299-.596.4081-.989.5354-.393.1145-.799.1718-1.218.1718-1.014 0-1.801-.2736-2.359-.8217-.558-.5473-.837-1.33-.837-2.349v-5.5573h-1.713v-1.5087h1.713v-2.2153h1.826v2.2153h2.893v1.5087h-2.893v5.481c0 .548.134.968.4 1.2608.279.2927.672.439 1.18.439.558 0 1.034-.159 1.427-.4772z"/><path d="m338.81 76.722h1.826v10.122h-1.826zm.912-1.9479c-.354 0-.652-.1146-.893-.3438-.228-.2292-.343-.5093-.343-.8403s.115-.6111.343-.8403c.241-.2419.539-.3629.893-.3629.356 0 .647.1146.876.3438.241.2165.361.4902.361.8212 0 .3438-.12.6366-.361.8785-.229.2292-.52.3438-.876.3438z"/><path d="m353.05 76.723-4.414 10.122h-1.864l-4.414-10.122h1.903l3.463 8.1168 3.538-8.1168z"/><path d="m363.58 81.836c0 .14-.013.3253-.038.5544h-8.181c.114.8909.501 1.61 1.16 2.1581.673.5345 1.503.8018 2.493.8018 1.204 0 2.175-.4073 2.91-1.2226l1.009 1.1844c-.457.5345-1.028.9418-1.713 1.2226-.672.28-1.426.42-2.263.42-1.066 0-2.011-.2164-2.835-.6499-.825-.4454-1.465-1.0627-1.922-1.8518-.444-.7899-.666-1.6808-.666-2.6743 0-.98.216-1.8646.647-2.6544.444-.7893 1.047-1.4004 1.808-1.8333.773-.4456 1.642-.6685 2.606-.6685s1.82.2229 2.568.6685c.761.4329 1.351 1.044 1.77 1.8333.431.7898.647 1.6935.647 2.7117zm-4.985-3.6665c-.875 0-1.611.2673-2.207.8021-.583.5347-.926 1.2353-1.027 2.1007h6.468c-.101-.8527-.45-1.5469-1.046-2.0816-.584-.5475-1.312-.8212-2.188-.8212z"/><path d="m366.56 79.241c-.356 0-.66-.121-.914-.3629-.253-.2546-.38-.5729-.38-.9548 0-.3693.127-.6748.38-.9168.254-.2546.558-.3819.914-.3819.355 0 .653.1209.894.3628.241.242.361.5539.361.9359 0 .3819-.127.7002-.38.9548-.241.2419-.533.3629-.875.3629zm.019 5.0995c.355 0 .647.1273.875.3818.241.2418.361.5473.361.9164 0 .1909-.025.3754-.076.5536-.038.179-.12.4526-.247.8217l-.894 2.6545h-1.199l.704-2.8454c-.241-.0891-.438-.2354-.59-.4391-.139-.2171-.209-.4653-.209-.7453 0-.3818.12-.6937.361-.9355s.546-.3627.914-.3627z"/><path d="m374.27 80.85v1.5281h-.647c-.558 0-.837.3181-.837.9545v4.3925c0 .9299-.247 1.6299-.742 2.1008-.482.4836-1.198.7255-2.15.7255h-.837v-1.5082h.457c.964 0 1.446-.4964 1.446-1.4899v-4.1825c0-.5346.076-.9291.228-1.1836.165-.2681.431-.459.799-.5736-.368-.1145-.634-.2991-.799-.5536-.152-.2673-.228-.6682-.228-1.2035v-4.1821c0-.9931-.482-1.4897-1.446-1.4897h-.457v-1.5087h.837c.952 0 1.668.2419 2.15.7258.495.471.742 1.1713.742 2.1007v4.3922c0 .6371.279.9553.837.9553z"/><path d="m175.4 11.623-7.002 2.7693 7.002 2.7692v1.1841l-8.276-3.3231v-1.2605l8.276-3.3421z"/><path d="m183.71 10.955c1.256 0 2.251.3692 2.986 1.1076.749.7258 1.123 1.7889 1.123 3.1894v5.8249h-1.351v-5.6912c0-1.044-.26-1.8398-.78-2.3872-.519-.5475-1.261-.8213-2.225-.8213-1.079 0-1.935.3247-2.569.974-.622.6366-.932 1.5215-.932 2.6547v5.271h-1.351v-14.171h1.351v5.8822c.368-.5857.875-1.0377 1.522-1.356s1.389-.4775 2.226-.4775z"/><path d="m195.12 13.436c1.395.0763 2.455.4583 3.178 1.1458.735.6748 1.103 1.5597 1.103 2.6546 0 .7639-.184 1.4451-.552 2.0435-.367.5857-.913 1.0504-1.636 1.3941-.723.3438-1.604.5157-2.645.5157-.963 0-1.876-.1528-2.739-.4583-.85-.3184-1.535-.7385-2.055-1.2605l.666-1.0886c.444.4584 1.034.834 1.77 1.1268.736.2801 1.522.4201 2.358.4201 1.091 0 1.935-.2355 2.531-.7066.596-.4838.894-1.1459.894-1.9862 0-.8275-.298-1.4768-.894-1.948-.596-.4711-1.497-.7066-2.702-.7066h-.95v-1.0122l3.69-4.6408h-6.811v-1.2223h8.562v.97404l-3.768 4.7554z"/><path d="m209.95 13.762v1.2605l-8.276 3.3231v-1.1841l7.002-2.7692-7.002-2.7693v-1.2031z"/><path d="m1231.6 104.8c0 .521-.08.916-.24 1.183-.17.267-.43.459-.8.574.37.114.63.305.8.572.16.268.24.662.24 1.184v4.183c0 .993.47 1.489 1.41 1.489h.48v1.509h-.84c-.95 0-1.67-.241-2.15-.726-.48-.471-.72-1.171-.72-2.101v-4.392c0-.637-.29-.955-.86-.955h-.66v-1.528h.66c.57 0 .86-.318.86-.954v-4.393c0-.9297.24-1.6297.72-2.1006.48-.4836 1.2-.7263 2.15-.7263h.84v1.509h-.48c-.94 0-1.41.4964-1.41 1.4899z"/><path d="m1241.3 111.2c-.27.229-.6.407-1 .534-.38.115-.8.172-1.21.172-1.01 0-1.81-.273-2.36-.821-.56-.548-.84-1.33-.84-2.349v-5.558h-1.71v-1.508h1.71v-2.2158h1.83v2.2158h2.89v1.508h-2.89v5.482c0 .547.13.967.4 1.26s.67.439 1.18.439c.55 0 1.03-.159 1.42-.477z"/><path d="m1252.2 106.79c0 .14-.02.325-.04.554h-8.19c.12.891.5 1.611 1.16 2.158.68.535 1.51.802 2.5.802 1.2 0 2.17-.407 2.91-1.222l1.01 1.184c-.46.535-1.03.942-1.72 1.222-.67.28-1.42.42-2.26.42-1.07 0-2.01-.216-2.83-.649-.83-.445-1.47-1.063-1.92-1.852s-.67-1.681-.67-2.674c0-.981.22-1.865.64-2.655.45-.789 1.05-1.4 1.81-1.833.78-.446 1.64-.669 2.61-.669s1.82.223 2.57.669c.76.433 1.35 1.044 1.77 1.833.43.79.65 1.693.65 2.712zm-4.99-3.667c-.87 0-1.61.268-2.2.802-.59.535-.93 1.235-1.04 2.101h6.47c-.1-.853-.45-1.546-1.04-2.082-.59-.547-1.32-.821-2.19-.821z"/><path d="m1260.9 111.79-2.92-3.877-2.95 3.877h-2.03l3.97-5.175-3.78-4.947h2.03l2.78 3.648 2.76-3.648h2l-3.81 4.947 4.02 5.175z"/><path d="m1270.7 111.2c-.27.229-.6.407-.99.534-.4.115-.8.172-1.22.172-1.02 0-1.8-.273-2.36-.821s-.84-1.33-.84-2.349v-5.558h-1.71v-1.508h1.71v-2.2158h1.83v2.2158h2.89v1.508h-2.89v5.482c0 .547.13.967.4 1.26.28.293.67.439 1.18.439.56 0 1.03-.159 1.43-.477z"/><path d="m1272 105.76h5.12v1.585h-5.12z"/><path d="m1283.7 101.57c1.4 0 2.46.344 3.19 1.032.75.687 1.12 1.713 1.12 3.074v6.112h-1.73v-1.337c-.3.471-.74.834-1.31 1.089-.56.242-1.22.362-2 .362-1.13 0-2.03-.273-2.72-.82-.67-.549-1.01-1.268-1.01-2.159s.33-1.604.97-2.139c.65-.548 1.68-.821 3.09-.821h2.89v-.363c0-.789-.23-1.394-.68-1.814-.46-.42-1.14-.63-2.02-.63-.6 0-1.19.101-1.76.305-.57.191-1.04.452-1.44.784l-.76-1.376c.52-.42 1.14-.738 1.86-.955.72-.229 1.49-.344 2.31-.344zm-.42 8.919c.7 0 1.3-.153 1.81-.458.5-.318.87-.764 1.1-1.337v-1.413h-2.82c-1.54 0-2.32.522-2.32 1.566 0 .509.2.91.59 1.203.4.293.94.439 1.64.439z"/><path d="m1291.4 97.617h1.82v14.171h-1.82z"/><path d="m1296.7 101.67h1.83v10.122h-1.83zm.91-1.9478c-.35 0-.65-.1146-.89-.3436-.23-.2291-.34-.5091-.34-.84 0-.331.11-.611.34-.8408.24-.2419.54-.3628.89-.3628.36 0 .65.1146.88.3437.24.2171.36.4908.36.8217 0 .3436-.12.6363-.36.8782-.23.229-.52.3436-.88.3436z"/><path d="m1311.6 101.67v8.747c0 1.769-.44 3.075-1.32 3.915-.87.853-2.18 1.28-3.92 1.28-.95 0-1.86-.134-2.72-.401-.86-.255-1.56-.625-2.09-1.108l.87-1.414c.47.408 1.05.726 1.73.955.7.242 1.42.363 2.16.363 1.17 0 2.04-.28 2.6-.84.57-.561.86-1.413.86-2.559v-.802c-.43.521-.96.917-1.6 1.184-.62.255-1.3.382-2.04.382-.96 0-1.84-.204-2.62-.611-.78-.421-1.39-1-1.83-1.738-.45-.752-.67-1.605-.67-2.559 0-.955.22-1.802.67-2.541.44-.751 1.05-1.33 1.83-1.737.78-.408 1.66-.612 2.62-.612.77 0 1.47.14 2.11.42.67.281 1.21.695 1.62 1.242v-1.566zm-5.26 8.097c.67 0 1.25-.14 1.78-.42s.94-.668 1.23-1.165c.3-.509.45-1.082.45-1.718 0-.981-.32-1.77-.96-2.369-.65-.611-1.48-.916-2.5-.916s-1.86.305-2.51.916c-.65.599-.97 1.388-.97 2.369 0 .636.15 1.209.44 1.718.31.497.72.885 1.23 1.165.54.28 1.14.42 1.81.42z"/><path d="m1320.5 101.57c1.28 0 2.29.376 3.04 1.127.76.739 1.14 1.828 1.14 3.266v5.825h-1.82v-5.615c0-.98-.24-1.718-.71-2.216-.47-.496-1.14-.744-2.02-.744-.98 0-1.77.293-2.34.878-.57.574-.85 1.401-.85 2.483v5.214h-1.83v-10.122h1.75v1.528c.37-.522.86-.923 1.49-1.204.63-.28 1.35-.42 2.15-.42z"/><path d="m1328.5 104.19c-.35 0-.66-.121-.92-.363-.25-.255-.38-.573-.38-.955 0-.369.13-.674.38-.917.26-.254.57-.382.92-.382s.65.121.89.363c.25.243.37.554.37.936s-.13.7-.39.955c-.23.242-.53.363-.87.363zm0 7.715c-.35 0-.66-.12-.92-.362-.25-.255-.38-.573-.38-.956 0-.369.13-.674.38-.916.26-.255.57-.382.92-.382s.65.121.89.363c.25.242.37.554.37.935 0 .383-.13.701-.39.956-.23.242-.53.362-.87.362z"/><path d="m1341.9 111.9c-1.03 0-1.95-.222-2.76-.668-.8-.445-1.42-1.057-1.88-1.833-.46-.789-.69-1.681-.69-2.674s.23-1.878.69-2.655c.46-.789 1.08-1.4 1.88-1.833.81-.446 1.73-.669 2.76-.669.91 0 1.72.185 2.44.555.72.369 1.28.903 1.67 1.603l-1.39.898c-.32-.484-.71-.847-1.18-1.089-.47-.241-.99-.362-1.56-.362-.66 0-1.26.146-1.79.439-.52.293-.93.713-1.23 1.261-.3.534-.44 1.151-.44 1.852 0 .713.14 1.343.44 1.891.3.535.71.948 1.23 1.241.53.293 1.13.439 1.79.439.57 0 1.09-.121 1.56-.363s.86-.604 1.18-1.088l1.39.878c-.39.7-.95 1.242-1.67 1.624-.72.369-1.53.553-2.44.553z"/><path d="m1357.3 106.79c0 .14-.01.325-.04.554h-8.18c.12.891.51 1.611 1.16 2.158.68.535 1.5.802 2.49.802 1.21 0 2.18-.407 2.91-1.222l1.02 1.184c-.46.535-1.03.942-1.71 1.222s-1.43.42-2.27.42c-1.06 0-2.02-.216-2.84-.649-.82-.445-1.46-1.063-1.92-1.852-.44-.789-.66-1.681-.66-2.674 0-.981.21-1.865.65-2.655.44-.789 1.04-1.4 1.8-1.833.77-.446 1.64-.669 2.6-.669.97 0 1.83.223 2.57.669.76.433 1.36 1.044 1.78 1.833.43.79.64 1.693.64 2.712zm-4.99-3.667c-.87 0-1.61.268-2.2.802-.59.535-.93 1.235-1.03 2.101h6.47c-.1-.853-.45-1.546-1.05-2.082-.58-.547-1.31-.821-2.19-.821z"/><path d="m1365.2 101.57c1.28 0 2.3.376 3.04 1.127.76.739 1.15 1.828 1.15 3.266v5.825h-1.83v-5.615c0-.98-.24-1.718-.7-2.216-.47-.496-1.15-.744-2.02-.744-.99 0-1.77.293-2.34.878-.58.574-.86 1.401-.86 2.483v5.214h-1.82v-10.122h1.75v1.528c.36-.522.86-.923 1.48-1.204.64-.28 1.35-.42 2.15-.42z"/><path d="m1378.5 111.2c-.27.229-.6.407-.99.534-.4.115-.8.172-1.22.172-1.02 0-1.8-.273-2.36-.821s-.84-1.33-.84-2.349v-5.558h-1.71v-1.508h1.71v-2.2158h1.82v2.2158h2.9v1.508h-2.9v5.482c0 .547.14.967.41 1.26.28.293.67.439 1.18.439.56 0 1.03-.159 1.43-.477z"/><path d="m1389.4 106.79c0 .14-.01.325-.03.554h-8.18c.11.891.5 1.611 1.15 2.158.68.535 1.51.802 2.49.802 1.21 0 2.18-.407 2.92-1.222l1.01 1.184c-.46.535-1.03.942-1.72 1.222-.67.28-1.42.42-2.26.42-1.07 0-2.01-.216-2.83-.649-.83-.445-1.47-1.063-1.93-1.852-.44-.789-.67-1.681-.67-2.674 0-.981.23-1.865.65-2.655.45-.789 1.05-1.4 1.81-1.833.77-.446 1.64-.669 2.61-.669.96 0 1.82.223 2.57.669.76.433 1.35 1.044 1.77 1.833.42.79.64 1.693.64 2.712zm-4.98-3.667c-.88 0-1.62.268-2.21.802-.58.535-.92 1.235-1.02 2.101h6.46c-.1-.853-.45-1.546-1.04-2.082-.59-.547-1.32-.821-2.19-.821z"/><path d="m1393.7 103.37c.32-.586.78-1.031 1.41-1.337.62-.306 1.37-.459 2.26-.459v1.776c-.1-.012-.24-.019-.42-.019-.98 0-1.77.299-2.34.898-.55.586-.83 1.426-.83 2.521v5.042h-1.83v-10.122h1.75z"/><path d="m1400.3 104.19c-.36 0-.66-.121-.91-.363-.26-.255-.38-.573-.38-.955 0-.369.12-.674.38-.917.25-.254.55-.382.91-.382s.65.121.9.363c.23.243.35.554.35.936s-.12.7-.38.955c-.24.242-.53.363-.87.363zm.02 5.099c.35 0 .65.127.88.382.23.242.35.547.35.916 0 .192-.02.377-.07.555-.04.178-.13.452-.25.821l-.89 2.654h-1.21l.71-2.845c-.24-.089-.44-.236-.59-.439-.14-.217-.21-.465-.21-.746 0-.381.13-.693.36-.935.24-.242.55-.363.92-.363z"/><path d="m1408 105.8v1.528h-.65c-.56 0-.83.318-.83.955v4.392c0 .93-.25 1.63-.75 2.101-.48.485-1.2.726-2.15.726h-.84v-1.509h.46c.97 0 1.45-.496 1.45-1.49v-4.182c0-.535.08-.929.23-1.184.16-.267.43-.458.8-.572-.37-.115-.64-.3-.8-.555-.15-.267-.23-.668-.23-1.203v-4.182c0-.9936-.48-1.4899-1.45-1.4899h-.46v-1.509h.84c.95 0 1.67.2426 2.15.7262.5.471.75 1.171.75 2.1007v4.393c0 .636.27.954.83.954z"/><path d="m118.95 100.79-10.502 4.154 10.502 4.154v1.775l-12.414-4.984v-1.891l12.414-5.0127z"/><path d="m131.43 99.79c1.884 0 3.377.5549 4.48 1.6619 1.123 1.089 1.684 2.683 1.684 4.784v8.737h-2.026v-8.537c0-1.565-.39-2.759-1.17-3.58-.78-.822-1.893-1.232-3.339-1.232-1.617 0-2.901.486-3.853 1.461-.931.954-1.397 2.282-1.397 3.982v7.906h-2.027v-21.256h2.027v8.8242c.551-.879 1.312-1.557 2.282-2.034.97-.478 2.084-.7169 3.339-.7169z"/><path d="m156.22 108.07h-12.556c.114 1.566.713 2.836 1.798 3.81 1.083.955 2.453 1.433 4.109 1.433.932 0 1.788-.163 2.568-.488.78-.343 1.455-.84 2.026-1.489l1.142 1.318c-.666.802-1.504 1.413-2.512 1.833-.989.42-2.083.63-3.281.63-1.542 0-2.912-.325-4.109-.974-1.18-.668-2.103-1.585-2.769-2.749-.666-1.166-.999-2.483-.999-3.954s.314-2.788.942-3.953c.647-1.166 1.522-2.072 2.626-2.722 1.122-.649 2.377-.974 3.766-.974s2.636.325 3.739.974c1.103.65 1.969 1.556 2.597 2.722.627 1.146.941 2.463.941 3.953zm-7.249-6.531c-1.446 0-2.663.467-3.652 1.404-.97.916-1.522 2.119-1.655 3.609h10.644c-.134-1.49-.695-2.693-1.683-3.609-.971-.937-2.189-1.404-3.654-1.404z"/><path d="m165.2 99.789c1.96 0 3.462.4969 4.509 1.4899 1.046.974 1.57 2.425 1.57 4.354v9.339h-1.941v-2.349c-.457.783-1.131 1.394-2.026 1.833-.875.44-1.921.659-3.139.659-1.675 0-3.006-.401-3.995-1.203-.99-.802-1.484-1.862-1.484-3.18 0-1.279.456-2.311 1.37-3.093.932-.783 2.406-1.175 4.423-1.175h4.765v-.917c0-1.299-.361-2.282-1.084-2.95-.723-.688-1.779-1.032-3.168-1.032-.951 0-1.864.163-2.739.487-.875.306-1.626.736-2.254 1.29l-.914-1.519c.761-.649 1.675-1.145 2.739-1.489 1.066-.3636 2.189-.5449 3.368-.5449zm-.713 13.722c1.141 0 2.121-.257 2.939-.774.819-.534 1.427-1.298 1.826-2.291v-2.464h-4.708c-2.569 0-3.852.898-3.852 2.693 0 .879.333 1.576.998 2.091.666.497 1.598.745 2.797.745z"/><path d="m190.54 93.713v21.256h-1.941v-2.979c-.609 1.012-1.417 1.786-2.425 2.32-.99.535-2.112.802-3.368.802-1.408 0-2.682-.324-3.824-.973-1.141-.65-2.036-1.557-2.683-2.722-.646-1.165-.97-2.492-.97-3.982s.324-2.816.97-3.982c.647-1.165 1.542-2.062 2.683-2.692 1.142-.65 2.416-.9748 3.824-.9748 1.218 0 2.312.2578 3.282.7738.989.497 1.798 1.232 2.425 2.206v-9.0531h2.027zm-7.563 19.595c1.047 0 1.988-.239 2.826-.717.856-.496 1.522-1.193 1.998-2.091.493-.897.741-1.919.741-3.065s-.248-2.167-.741-3.065c-.476-.898-1.142-1.585-1.998-2.063-.838-.496-1.779-.745-2.826-.745-1.065 0-2.026.249-2.882.745-.837.478-1.503 1.165-1.997 2.063-.476.898-.714 1.919-.714 3.065s.238 2.168.714 3.065c.494.898 1.16 1.595 1.997 2.091.856.478 1.817.717 2.882.717z"/><path d="m209.25 108.07h-12.557c.115 1.566.714 2.836 1.798 3.81 1.084.955 2.454 1.433 4.109 1.433.933 0 1.789-.163 2.569-.488.779-.343 1.455-.84 2.026-1.489l1.141 1.318c-.666.802-1.503 1.413-2.511 1.833-.989.42-2.083.63-3.282.63-1.541 0-2.911-.325-4.109-.974-1.179-.668-2.102-1.585-2.768-2.749-.666-1.166-.999-2.483-.999-3.954s.314-2.788.942-3.953c.647-1.166 1.522-2.072 2.625-2.722 1.122-.649 2.378-.974 3.767-.974s2.635.325 3.738.974c1.104.65 1.969 1.556 2.597 2.722.628 1.146.942 2.463.942 3.953zm-7.249-6.531c-1.446 0-2.664.467-3.653 1.404-.97.916-1.521 2.119-1.655 3.609h10.644c-.133-1.49-.694-2.693-1.683-3.609-.97-.937-2.188-1.404-3.653-1.404z"/><path d="m215.35 102.85c.475-1.013 1.178-1.776 2.111-2.292.951-.516 2.121-.7739 3.51-.7739v1.9769l-.485-.029c-1.579 0-2.816.487-3.71 1.461s-1.341 2.34-1.341 4.097v7.677h-2.026v-15.068h1.941v2.9513z"/><path d="m236.44 104v1.891l-12.413 4.984v-1.775l10.501-4.154-10.501-4.154v-1.8046z"/><path d="m1193.2 45.09-10.5 4.1538 10.5 4.1538v1.7761l-12.41-4.9845v-1.8908l12.41-5.0131z"/><path d="m1203 39.59c-.87 0-1.53.2387-1.99.7162-.44.4774-.66 1.1841-.66 2.1198v1.7761h4.63v1.7189h-4.57v13.349h-2.03v-13.349h-2.68v-1.7189h2.68v-1.862c0-1.3751.39-2.4636 1.18-3.2658.79-.802 1.91-1.2031 3.36-1.2031.57 0 1.12.0859 1.65.2578.53.1528.99.382 1.34.6875l-.68 1.5183c-.59-.4965-1.33-.7448-2.23-.7448z"/><path d="m1213.6 59.414c-1.45 0-2.75-.3247-3.91-.974-1.17-.6685-2.08-1.5851-2.74-2.7501-.67-1.165-1-2.4828-1-3.9533 0-1.4706.33-2.7883 1-3.9533.66-1.165 1.57-2.0721 2.74-2.7215 1.16-.6493 2.46-.9739 3.91-.9739 1.44 0 2.75.3246 3.91.9739 1.15.6494 2.06 1.5565 2.71 2.7215.66 1.165 1 2.4827 1 3.9533 0 1.4705-.34 2.7883-1 3.9533-.65 1.165-1.56 2.0816-2.71 2.7501-1.16.6493-2.47.974-3.91.974zm0-1.8047c1.06 0 2.01-.2388 2.85-.7163.86-.4965 1.52-1.1935 2-2.0912.48-.8976.71-1.9193.71-3.0652s-.23-2.1676-.71-3.0652-1.14-1.5851-2-2.0626c-.84-.4966-1.79-.7448-2.85-.7448s-2.03.2482-2.89.7448c-.83.4775-1.5 1.165-2 2.0626-.47.8976-.71 1.9193-.71 3.0652s.24 2.1676.71 3.0652c.5.8977 1.17 1.5947 2 2.0912.86.4775 1.83.7163 2.89.7163z"/><path d="m1231.5 59.414c-1.45 0-2.75-.3247-3.9-.974-1.17-.6685-2.08-1.5851-2.75-2.7501-.66-1.165-1-2.4828-1-3.9533 0-1.4706.34-2.7883 1-3.9533.67-1.165 1.58-2.0721 2.75-2.7215 1.15-.6493 2.45-.9739 3.9-.9739s2.75.3246 3.91.9739c1.16.6494 2.06 1.5565 2.71 2.7215.67 1.165 1 2.4827 1 3.9533 0 1.4705-.33 2.7883-1 3.9533-.65 1.165-1.55 2.0816-2.71 2.7501-1.16.6493-2.46.974-3.91.974zm0-1.8047c1.07 0 2.02-.2388 2.86-.7163.85-.4965 1.52-1.1935 2-2.0912.47-.8976.71-1.9193.71-3.0652s-.24-2.1676-.71-3.0652c-.48-.8976-1.15-1.5851-2-2.0626-.84-.4966-1.79-.7448-2.86-.7448s-2.03.2482-2.88.7448c-.83.4775-1.5 1.165-2 2.0626-.47.8976-.71 1.9193-.71 3.0652s.24 2.1676.71 3.0652c.5.8977 1.17 1.5947 2 2.0912.85.4775 1.81.7163 2.88.7163z"/><path d="m1251.2 58.354c-.39.3437-.86.6111-1.43.8021-.56.1719-1.14.2578-1.75.2578-1.41 0-2.49-.382-3.25-1.1459s-1.14-1.8429-1.14-3.2371v-9.1095h-2.69v-1.7188h2.69v-3.2944h2.02v3.2944h4.57v1.7188h-4.57v8.995c0 .8976.23 1.5851.66 2.0626.46.4584 1.1.6875 1.94.6875.42 0 .82-.0669 1.2-.2005.4-.1337.75-.3247 1.03-.573z"/><path d="m1267.4 52.367h-12.56c.11 1.566.71 2.8361 1.8 3.8101 1.08.9549 2.45 1.4324 4.11 1.4324.93 0 1.79-.1624 2.57-.4871.77-.3437 1.45-.8403 2.02-1.4896l1.15 1.3177c-.67.8022-1.51 1.4133-2.52 1.8335-.99.4201-2.08.6302-3.28.6302-1.54 0-2.91-.3247-4.11-.974-1.18-.6685-2.1-1.5851-2.77-2.7501s-1-2.4828-1-3.9533c0-1.4706.32-2.7883.94-3.9533.65-1.165 1.53-2.0721 2.63-2.7215 1.12-.6493 2.38-.9739 3.76-.9739 1.4 0 2.64.3246 3.75.9739 1.1.6494 1.96 1.5565 2.6 2.7215.62 1.1459.93 2.4636.93 3.9533zm-7.26-6.5315c-1.44 0-2.66.4679-3.64 1.4037-.98.9168-1.52 2.1199-1.66 3.6095h10.65c-.14-1.4896-.7-2.6927-1.69-3.6095-.97-.9358-2.19-1.4037-3.66-1.4037z"/><path d="m1273.5 47.153c.48-1.0122 1.18-1.7761 2.12-2.2918.95-.5156 2.12-.7734 3.5-.7734v1.9766l-.48-.0286c-1.58 0-2.81.487-3.71 1.461-.9.9739-1.34 2.3394-1.34 4.0965v7.6773h-2.02v-15.068h1.93v2.9507z"/><path d="m1294.6 48.298v1.8907l-12.41 4.9845v-1.7761l10.5-4.1537-10.5-4.1539v-1.8047z"/></g></svg>