<svg fill="none" height="864" viewBox="0 0 803 864" width="803" xmlns="http://www.w3.org/2000/svg" xmlns:xlink="http://www.w3.org/1999/xlink"><filter id="a" color-interpolation-filters="sRGB" filterUnits="userSpaceOnUse" height="530.003" width="801.775" x=".231445" y="333.998"><feFlood flood-opacity="0" result="BackgroundImageFix"/><feBlend in="SourceGraphic" in2="BackgroundImageFix" mode="normal" result="shape"/><feGaussianBlur result="effect1_foregroundBlur" stdDeviation="40"/></filter><linearGradient id="b" gradientUnits="userSpaceOnUse" x1="352.698" x2="721.494" y1="284.399" y2="284.399"><stop offset=".21" stop-color="#fff" stop-opacity="0"/><stop offset="1" stop-color="#fff" stop-opacity=".2"/></linearGradient><g filter="url(#a)" opacity=".6"><path d="m450.975 781.992-367.2664-211.702c-5.1538-2.933-4.5077-8.154 1.4683-11.586l246.0141-141.863c5.873-3.432 14.947-3.813 20.101-.836l367.237 211.775c5.154 2.934 4.508 8.155-1.468 11.586l-245.985 141.805c-5.946 3.417-14.947 3.798-20.101.821z" fill="#070716"/></g><path d="m729.62 551.168-367.178-211.775c-5.154-2.933-9.324-10.941-9.324-17.79v-283.7404c0-6.8636 4.17-10.0168 9.324-7.0396l367.178 211.775c5.154 2.933 9.324 10.941 9.324 17.79v283.741c.059 6.863-4.111 10.017-9.324 7.039z" fill="#3c3e63"/><path d="m731.574 554.1 4.067-2.346-1.762-12.041z" fill="#3c3e63"/><path d="m726.316 553.178-367.237-211.834c-5.154-2.933-9.339-10.941-9.339-17.804v-283.6676c0-6.8637 4.185-10.0168 9.339-7.0397l367.237 211.7753c5.154 2.933 9.324 10.941 9.324 17.804v283.668c0 6.849-4.17 10.031-9.324 7.098z" fill="#9193be"/><path d="m725.669 553.485-367.238-211.775c-5.154-2.933-9.338-10.941-9.338-17.804v-283.7412c0-6.849 4.184-10.0022 9.338-7.0397l367.238 211.7749c5.139 2.934 9.323 10.941 9.323 17.805v283.741c0 6.863-4.184 10.016-9.323 7.039z" fill="#7274a0"/><path d="m456.707 713.549-367.267-211.702c-5.1537-2.933-4.5077-8.154 1.4683-11.586l246.0147-141.863c5.873-3.432 14.947-3.813 20.101-.836l367.237 211.775c5.154 2.933 4.508 8.154-1.468 11.586l-245.985 141.805c-5.947 3.417-14.948 3.798-20.101.821z" fill="#3c3e63"/><path d="m85.9922 496.995v-6.923l7.782 3.256z" fill="#3c3e63"/><path d="m727.74 564.443v-6.761l-5.756 1.98 3.818 5.602z" fill="#3c3e63"/><path d="m456.707 707.726-367.267-211.746c-5.1537-2.933-4.5077-8.154 1.4683-11.586l246.0147-141.878c5.873-3.432 14.947-3.798 20.101-.821l367.237 211.775c5.154 2.933 4.508 8.155-1.468 11.586l-245.985 141.834c-5.947 3.432-14.948 3.813-20.101.836z" fill="#9193be"/><path d="m456.709 706.83-367.267-211.775c-5.1538-2.933-4.5077-8.169 1.4683-11.586l246.0137-141.878c5.874-3.432 14.948-3.799 20.102-.836l367.237 211.79c5.154 2.933 4.508 8.154-1.468 11.586l-245.985 141.863c-5.947 3.432-14.948 3.798-20.101.836z" fill="#7274a0"/><g fill="#232449"><path d="m330.108 389.447-17.091-9.855c-1.468-.807-1.219-2.215.382-3.138l16.327-9.416c.825-.459 1.747-.718 2.69-.756.944-.038 1.883.146 2.743.536l17.106 9.856c1.395.806 1.218 2.214-.397 3.138l-16.313 9.415c-.827.459-1.751.718-2.697.756-.946.039-1.888-.145-2.75-.536z"/><path d="m354.324 403.407-17.106-9.87c-1.395-.792-1.219-2.2.397-3.139l16.312-9.401c.828-.459 1.752-.718 2.698-.756s1.888.146 2.75.536l17.091 9.856c1.468.806 1.219 2.214-.382 3.138l-16.327 9.401c-.823.464-1.744.728-2.689.768-.944.041-1.884-.142-2.744-.533z"/><path d="m378.797 417.531-17.091-9.87c-1.468-.807-1.218-2.214.382-3.138l16.328-9.401c.823-.465 1.744-.728 2.688-.769s1.885.142 2.744.534l17.106 9.87c1.468.792 1.219 2.2-.396 3.139l-16.313 9.401c-.828.456-1.751.715-2.696.756s-1.887-.138-2.752-.522z"/><path d="m402.726 431.319-17.106-9.856c-1.394-.806-1.218-2.214.397-3.138l16.313-9.416c.827-.459 1.751-.717 2.697-.756.946-.038 1.888.146 2.75.536l17.106 9.856c1.395.806 1.219 2.214-.397 3.138l-16.312 9.416c-.828.459-1.752.718-2.698.756s-1.888-.146-2.75-.536z"/><path d="m426.948 445.28-17.106-9.856c-1.468-.806-1.219-2.214.396-3.138l16.313-9.416c.828-.459 1.752-.717 2.698-.756.946-.038 1.887.146 2.75.536l17.091 9.856c1.394.806 1.218 2.214-.397 3.138l-16.313 9.416c-.825.458-1.746.717-2.69.756-.943.038-1.883-.146-2.742-.536z"/><path d="m451.14 459.315-17.091-9.856c-1.395-.806-1.234-2.214.381-3.138l16.313-9.416c.828-.458 1.752-.717 2.698-.756.946-.038 1.887.146 2.75.536l17.105 9.856c1.395.807 1.219 2.214-.396 3.138l-16.313 9.416c-.828.459-1.752.718-2.697.756-.946.038-1.888-.146-2.75-.536z"/><path d="m475.355 473.206-17.106-9.856c-1.395-.807-1.218-2.215.397-3.138l16.313-9.416c.827-.459 1.751-.718 2.697-.756s1.888.145 2.75.536l17.091 9.856c1.395.806 1.219 2.214-.382 3.138l-16.327 9.401c-.823.464-1.744.728-2.688.768-.945.041-1.885-.142-2.745-.533z"/><path d="m499.551 487.182-17.091-9.871c-1.395-.806-1.219-2.199.381-3.138l16.328-9.401c.823-.464 1.744-.728 2.688-.768.944-.041 1.885.142 2.745.533l17.105 9.871c1.469.806 1.219 2.199-.396 3.138l-16.342 9.386c-.821.462-1.739.726-2.68.769s-1.879-.135-2.738-.519z"/><path d="m523.763 501.112-17.105-9.855c-1.395-.807-1.219-2.215.396-3.139l16.313-9.4c.825-.465 1.749-.728 2.695-.769.947-.041 1.89.142 2.752.534l17.091 9.87c1.395.792 1.219 2.2-.381 3.139l-16.313 9.4c-.828.459-1.752.718-2.698.756-.946.039-1.888-.145-2.75-.536z"/><path d="m547.963 515.045-17.091-9.855c-1.395-.807-1.219-2.215.382-3.139l16.298-9.386c.825-.459 1.746-.718 2.69-.756.943-.038 1.883.146 2.742.536l17.106 9.855c1.395.807 1.219 2.215-.396 3.139l-16.269 9.415c-.832.457-1.76.712-2.708.745-.949.033-1.892-.156-2.754-.554z"/><path d="m572.173 529.039-17.105-9.855c-1.395-.807-1.219-2.215.396-3.139l16.313-9.415c.828-.459 1.752-.718 2.698-.756.945-.038 1.887.145 2.749.536l17.106 9.855c1.395.807 1.219 2.215-.396 3.139l-16.313 9.416c-.828.458-1.752.717-2.698.755-.946.039-1.887-.145-2.75-.536z"/><path d="m596.384 542.998-17.105-9.855c-1.395-.807-1.219-2.215.396-3.138l16.328-9.416c.827-.459 1.751-.718 2.697-.756s1.888.145 2.75.536l17.091 9.856c1.468.806 1.219 2.214-.396 3.138l-16.269 9.415c-.833.469-1.765.733-2.719.771-.955.038-1.905-.15-2.773-.551z"/><path d="m620.586 556.962-17.091-9.87c-1.469-.807-1.234-2.2.381-3.139l16.313-9.401c.827-.461 1.75-.722 2.696-.763s1.888.14 2.752.529l17.105 9.87c1.395.806 1.219 2.2-.396 3.138l-16.313 9.401c-.825.465-1.749.728-2.696.769-.946.04-1.889-.143-2.751-.534z"/><path d="m656.449 577.641-28.764-16.587c-1.395-.807-1.219-2.215.396-3.139l16.372-9.401c.825-.464 1.749-.727 2.695-.768.947-.041 1.89.142 2.752.534l28.691 16.631c1.395.807 1.219 2.214-.382 3.138l-16.327 9.416c-.829.452-1.752.703-2.696.733-.943.031-1.881-.16-2.737-.557z"/><path d="m342.567 423.678-17.106-9.826c-1.468-.807-1.219-2.215.396-3.139l16.313-9.415c.828-.459 1.752-.718 2.698-.756s1.887.145 2.75.536l17.091 9.841c1.395.806 1.218 2.214-.382 3.138l-16.328 9.416c-.826.456-1.748.712-2.692.748-.943.036-1.882-.15-2.74-.543z"/><path d="m366.805 437.67-17.091-9.855c-1.395-.807-1.219-2.215.381-3.139l16.328-9.357c.825-.458 1.746-.717 2.69-.755.944-.039 1.883.145 2.743.535l17.12 9.797c1.395.807 1.219 2.215-.396 3.139l-16.313 9.415c-.83.461-1.756.722-2.705.76s-1.893-.147-2.757-.54z"/><path d="m391.061 451.645-17.106-9.856c-1.468-.806-1.219-2.214.397-3.138l16.312-9.416c.828-.458 1.752-.717 2.698-.755.946-.039 1.888.145 2.75.535l17.091 9.856c1.395.807 1.219 2.215-.382 3.138l-16.327 9.416c-.826.459-1.747.717-2.691.756-.943.038-1.883-.146-2.742-.536z"/><path d="m415.3 465.636-17.105-9.87c-1.395-.792-1.219-2.2.396-3.138l16.313-9.445c.827-.461 1.75-.723 2.696-.763.946-.041 1.888.14 2.751.528l17.077 9.915c1.395.806 1.218 2.199-.397 3.138l-16.313 9.401c-.821.46-1.74.72-2.681.761s-1.878-.14-2.737-.527z"/><path d="m439.352 479.512-17.092-9.929c-1.394-.807-1.218-2.2.382-3.139l16.328-9.4c.823-.465 1.744-.728 2.688-.769s1.885.142 2.744.534l17.106 9.87c1.469.792 1.219 2.2-.396 3.139l-16.342 9.459c-.823.457-1.741.715-2.682.756-.94.041-1.877-.138-2.736-.521z"/><path d="m463.609 493.487-17.106-9.856c-1.395-.806-1.218-2.214.397-3.138l16.313-9.445c.827-.459 1.751-.718 2.697-.756s1.888.145 2.75.536l17.091 9.855c1.395.807 1.219 2.215-.382 3.139l-16.327 9.415c-.823.464-1.743.728-2.687.771s-1.884-.135-2.746-.521z"/><path d="m487.851 507.464-17.106-9.856c-1.394-.806-1.218-2.214.397-3.138l16.313-9.401c.825-.464 1.749-.728 2.695-.768.947-.041 1.89.142 2.752.533l17.106 9.871c1.395.792 1.219 2.2-.397 3.138l-16.312 9.401c-.828.459-1.752.718-2.698.756s-1.888-.145-2.75-.536z"/><path d="m512.094 521.453-17.091-9.855c-1.395-.807-1.218-2.215.397-3.139l16.313-9.415c.825-.459 1.746-.718 2.69-.756.943-.038 1.883.145 2.742.536l17.106 9.855c1.395.807 1.219 2.215-.396 3.139l-16.313 9.415c-.828.459-1.752.718-2.698.756-.946.039-1.888-.145-2.75-.536z"/><path d="m536.35 535.432-17.106-9.855c-1.468-.807-1.219-2.215.397-3.139l16.312-9.415c.828-.459 1.752-.718 2.698-.756.946-.039 1.888.145 2.75.536l17.091 9.855c1.395.807 1.233 2.215-.382 3.139l-16.313 9.415c-.828.459-1.751.718-2.697.756s-1.888-.145-2.75-.536z"/><path d="m560.592 549.421-17.091-9.87c-1.395-.792-1.219-2.2.381-3.139l16.328-9.4c.825-.458 1.746-.718 2.689-.758.943-.041 1.882.138 2.744.523l17.15 9.87c1.394.807 1.218 2.215-.397 3.139l-16.313 9.4c-.831.472-1.762.739-2.717.78s-1.906-.146-2.774-.545z"/><path d="m584.849 563.444-17.106-9.856c-1.394-.806-1.218-2.214.397-3.138l16.313-9.416c.828-.459 1.751-.717 2.697-.756.946-.038 1.888.146 2.75.536l17.091 9.856c1.395.806 1.219 2.214-.382 3.138l-16.327 9.416c-.825.458-1.747.717-2.69.756-.944.038-1.883-.146-2.743-.536z"/><path d="m609.083 577.391-17.091-9.87c-1.395-.806-1.233-2.2.382-3.138l16.313-9.401c.826-.461 1.749-.723 2.695-.763.946-.041 1.889.14 2.752.528l17.106 9.87c1.395.807 1.218 2.2-.397 3.139l-16.313 9.401c-.825.464-1.749.728-2.695.768-.947.041-1.89-.142-2.752-.534z"/><path d="m318.309 409.701-28.75-16.587c-1.395-.806-1.218-2.2.382-3.138l16.328-9.401c.822-.465 1.744-.728 2.688-.769.944-.04 1.884.142 2.744.534l28.823 16.587c1.395.807 1.219 2.215-.396 3.139l-16.372 9.386c-.825.463-1.748.727-2.694.771-.946.043-1.889-.136-2.753-.522z"/><path d="m655.278 578.535-17.091-9.856c-.786-.401-1.657-.611-2.54-.611-.884 0-1.754.21-2.54.611l-17.238 9.944c-1.469.807-1.469 2.112 0 2.933l1.365.792c1.292.733 1.278 1.951 0 2.699l-18.295 10.5c-1.468.822-1.468 2.127 0 2.934l10.88 6.277c.785.398 1.653.605 2.533.605s1.748-.207 2.533-.605l17.062-9.827 3.524-2.038 2.54-1.467 2.555-1.466 14.683-8.463c1.424-.85 1.424-2.155.029-2.962z"/><path d="m236.356 443.621-17.091-9.855c-1.468-.807-1.219-2.215.382-3.139l16.327-9.444c.825-.459 1.747-.718 2.69-.756.944-.038 1.883.145 2.743.536l17.106 9.855c1.395.807 1.218 2.215-.397 3.139l-16.313 9.415c-.825.464-1.748.728-2.694.771s-1.889-.135-2.753-.522z"/><path d="m260.497 457.541-17.091-9.855c-1.469-.807-1.219-2.215.381-3.139l16.328-9.415c.825-.459 1.746-.718 2.69-.756s1.883.145 2.743.536l17.105 9.855c1.395.807 1.219 2.215-.396 3.139l-16.313 9.415c-.828.459-1.752.718-2.697.756-.946.038-1.888-.145-2.75-.536z"/><path d="m284.636 471.459-17.091-9.855c-1.468-.807-1.233-2.215.382-3.139l16.313-9.415c.828-.459 1.752-.718 2.697-.756.946-.038 1.888.145 2.75.536l17.062 9.855c1.395.807 1.219 2.215-.396 3.139l-16.313 9.415c-.823.452-1.738.707-2.676.745-.938.039-1.871-.141-2.728-.525z"/><path d="m490.199 590.003-17.105-9.87c-1.469-.792-1.219-2.2.396-3.139l16.313-9.401c.827-.461 1.75-.722 2.696-.763s1.888.14 2.751.529l17.062 9.87c1.468.806 1.219 2.2-.396 3.138l-16.284 9.474c-.828.453-1.753.704-2.697.732s-1.881-.168-2.736-.57z"/><path d="m514.325 603.922-17.091-9.855c-1.469-.807-1.219-2.215.381-3.139l16.328-9.415c.825-.459 1.747-.718 2.69-.756.944-.038 1.883.145 2.743.536l17.105 9.855c1.469.807 1.219 2.215-.396 3.139l-16.313 9.415c-.828.459-1.751.718-2.697.756s-1.888-.145-2.75-.536z"/><path d="m538.461 617.84-17.091-9.855c-1.395-.807-1.219-2.215.382-3.139l16.327-9.415c.825-.459 1.747-.718 2.69-.756.944-.038 1.883.145 2.743.536l17.106 9.855c1.468.807 1.218 2.215-.397 3.139l-16.313 9.415c-.828.459-1.751.718-2.697.756s-1.888-.145-2.75-.536z"/><path d="m562.602 631.758-17.092-9.855c-1.394-.807-1.218-2.215.382-3.139l16.342-9.415c.826-.459 1.747-.718 2.691-.756.943-.038 1.883.145 2.742.536l17.106 9.855c1.468.807 1.219 2.215-.397 3.139l-16.268 9.415c-.836.468-1.77.733-2.727.771s-1.91-.151-2.779-.551z"/><path d="m314.986 488.969-23.317-13.449c-1.395-.807-1.218-2.215.397-3.139l16.313-9.415c.827-.459 1.751-.718 2.697-.756s1.888.145 2.75.536l23.317 13.449c1.468.806 1.218 2.199-.397 3.138l-16.313 9.401c-.825.464-1.749.728-2.695.769-.947.04-1.89-.143-2.752-.534z"/><path d="m466.058 576.086-23.316-13.449c-1.469-.807-1.219-2.215.381-3.139l16.328-9.415c.825-.459 1.746-.718 2.69-.756s1.883.145 2.743.536l23.316 13.449c1.395.806 1.219 2.199-.382 3.138l-16.327 9.401c-.823.464-1.744.728-2.688.768-.944.041-1.885-.142-2.745-.533z"/><path d="m435.691 558.574-113.661-65.527c-1.395-.807-1.219-2.214.382-3.138l16.327-9.416c.825-.459 1.747-.717 2.69-.756.944-.038 1.883.146 2.743.536l113.676 65.571c1.395.807 1.219 2.215-.396 3.139l-16.313 9.415c-.832.452-1.757.703-2.703.734s-1.886-.16-2.745-.558z"/><path d="m325.678 441.014-17.091-9.856c-1.395-.806-1.218-2.214.397-3.138l16.313-9.416c.825-.458 1.746-.717 2.69-.755.943-.039 1.883.145 2.742.535l17.135 9.856c1.469.807 1.219 2.214-.396 3.138l-16.313 9.416c-.831.464-1.761.725-2.712.763-.952.038-1.899-.148-2.765-.543z"/><path d="m349.859 454.917-17.091-9.871c-1.395-.806-1.218-2.199.382-3.138l16.328-9.401c.824-.461 1.744-.722 2.688-.763s1.884.14 2.744.528l17.106 9.871c1.468.806 1.219 2.199-.396 3.138l-16.313 9.401c-.826.464-1.749.728-2.696.769-.946.04-1.889-.143-2.752-.534z"/><path d="m374.039 468.893-17.105-9.855c-1.469-.807-1.219-2.215.396-3.139l16.313-9.415c.828-.459 1.752-.718 2.697-.756.946-.039 1.888.145 2.75.536l17.091 9.855c1.469.807 1.234 2.215-.381 3.139l-16.313 9.415c-.828.459-1.752.718-2.698.756s-1.887-.145-2.75-.536z"/><path d="m398.229 482.78-17.106-9.856c-1.468-.806-1.219-2.214.396-3.138l16.269-9.357c.828-.459 1.752-.718 2.698-.756s1.888.145 2.75.536l17.091 9.855c1.468.807 1.218 2.215-.382 3.139l-16.283 9.415c-.83.45-1.754.698-2.698.726-.943.028-1.88-.165-2.735-.564z"/><path d="m422.393 496.787-17.091-9.855c-1.468-.807-1.219-2.215.382-3.139l16.327-9.415c.826-.459 1.747-.718 2.691-.756.943-.038 1.882.145 2.742.536l17.106 9.855c1.468.807 1.219 2.215-.397 3.139l-16.312 9.415c-.828.459-1.752.718-2.698.756s-1.888-.145-2.75-.536z"/><path d="m446.57 510.734-17.091-9.87c-1.468-.806-1.233-2.2.382-3.138l16.371-9.401c.826-.464 1.749-.728 2.696-.769.946-.04 1.889.143 2.752.534l17.105 9.871c1.395.806 1.219 2.199-.396 3.138l-16.313 9.401c-.833.474-1.767.743-2.725.783-.957.041-1.911-.147-2.781-.549z"/><path d="m470.757 524.668-17.105-9.855c-1.395-.807-1.219-2.215.396-3.139l16.313-9.415c.828-.459 1.752-.718 2.698-.756.945-.038 1.887.145 2.749.536l17.091 9.855c1.469.807 1.219 2.215-.381 3.139l-16.328 9.415c-.825.459-1.746.718-2.69.756s-1.883-.145-2.743-.536z"/><path d="m494.943 538.614-17.106-9.856c-1.395-.806-1.218-2.214.397-3.138l16.313-9.416c.827-.459 1.751-.717 2.697-.756.946-.038 1.888.146 2.75.536l17.091 9.856c1.395.806 1.219 2.214-.396 3.138l-16.313 9.416c-.825.458-1.747.717-2.69.755-.944.039-1.883-.145-2.743-.535z"/><path d="m519.106 552.561-17.076-9.856c-1.395-.806-1.219-2.214.382-3.138l16.327-9.416c.825-.458 1.747-.717 2.69-.755.944-.039 1.883.145 2.743.535l17.106 9.856c1.395.806 1.218 2.214-.397 3.138l-16.313 9.416c-.829.461-1.756.721-2.704.759-.949.039-1.894-.146-2.758-.539z"/><path d="m543.289 566.506-17.106-9.87c-1.395-.807-1.219-2.2.396-3.139l16.313-9.4c.826-.465 1.749-.728 2.696-.769.946-.041 1.889.142 2.752.534l17.105 9.87c1.395.792 1.219 2.2-.396 3.138l-16.313 9.401c-.827.461-1.75.723-2.696.764-.946.04-1.888-.141-2.751-.529z"/><path d="m567.48 580.444-17.106-9.856c-1.395-.806-1.218-2.214.397-3.138l16.313-9.416c.827-.459 1.751-.717 2.697-.756.946-.038 1.888.146 2.75.536l17.091 9.856c1.468.806 1.219 2.214-.382 3.138l-16.327 9.416c-.825.458-1.747.717-2.69.756-.944.038-1.883-.146-2.743-.536z"/><path d="m591.598 594.389-17.091-9.856c-1.395-.806-1.219-2.214.397-3.138l16.312-9.416c.826-.458 1.747-.717 2.691-.755.943-.039 1.883.145 2.742.535l17.106 9.856c1.395.807 1.219 2.214-.397 3.138l-16.268 9.489c-.84.455-1.774.705-2.729.73-.954.026-1.901-.174-2.763-.583z"/><path d="m301.508 427.052-35.371-20.386c-1.469-.806-1.219-2.214.396-3.138l16.313-9.416c.828-.458 1.752-.717 2.698-.755.946-.039 1.887.145 2.749.535l35.357 20.386c1.468.807 1.219 2.215-.382 3.139l-16.327 9.415c-.825.459-1.747.718-2.69.756-.944.038-1.883-.146-2.743-.536z"/><path d="m290.216 447.583-17.091-9.826c-1.395-.807-1.234-2.2.382-3.139l16.312-9.4c.826-.465 1.749-.728 2.696-.769s1.889.142 2.752.534l17.106 9.87c1.394.792 1.218 2.2-.397 3.139l-16.313 9.4c-.83.455-1.755.708-2.701.742-.946.033-1.886-.156-2.746-.551z"/><path d="m314.398 461.559-17.106-9.855c-1.395-.807-1.218-2.215.397-3.139l16.313-9.415c.827-.459 1.751-.718 2.697-.756.946-.039 1.888.145 2.75.536l17.091 9.855c1.468.807 1.219 2.215-.382 3.139l-16.327 9.415c-.825.459-1.747.718-2.69.756-.944.038-1.883-.146-2.743-.536z"/><path d="m338.569 475.45-17.135-9.812c-1.469-.806-1.219-2.199.396-3.138l16.313-9.401c.827-.461 1.75-.723 2.696-.763.946-.041 1.888.14 2.751.528l17.106 9.871c1.468.806 1.219 2.199-.396 3.138l-16.313 9.401c-.827.45-1.747.701-2.688.731-.941.031-1.876-.159-2.73-.555z"/><path d="m362.736 489.44-17.091-9.856c-1.469-.806-1.219-2.214.396-3.138l16.313-9.416c.825-.458 1.746-.717 2.69-.756.944-.038 1.883.146 2.743.536l17.105 9.856c1.395.806 1.219 2.214-.396 3.138l-16.313 9.416c-.828.459-1.752.717-2.698.756-.945.038-1.887-.146-2.749-.536z"/><path d="m386.92 503.385-17.032-9.855c-1.395-.807-1.219-2.215.396-3.139l16.313-9.415c.828-.459 1.752-.718 2.698-.756s1.888.145 2.75.536l17.091 9.855c1.395.807 1.233 2.215-.382 3.139l-16.313 9.401c-.834.476-1.771.746-2.732.787-.96.041-1.917-.149-2.789-.553z"/><path d="m411.086 517.319-17.091-9.856c-1.395-.807-1.219-2.214.382-3.138l16.327-9.416c.825-.459 1.747-.717 2.69-.756.944-.038 1.883.146 2.743.536l17.106 9.856c1.394.806 1.218 2.214-.397 3.138l-16.313 9.416c-.827.458-1.751.717-2.697.756-.946.038-1.888-.146-2.75-.536z"/><path d="m435.267 531.268-17.106-9.855c-1.394-.807-1.218-2.215.397-3.139l16.313-9.415c.828-.459 1.751-.718 2.697-.756.946-.039 1.888.145 2.75.536l17.091 9.855c1.395.807 1.219 2.215-.382 3.139l-16.312 9.415c-.828.459-1.752.718-2.698.756s-1.888-.145-2.75-.536z"/><path d="m459.453 545.215-17.091-9.87c-1.395-.807-1.219-2.2.382-3.139l16.327-9.401c.823-.464 1.744-.727 2.688-.768.945-.041 1.885.142 2.745.534l17.106 9.87c1.395.792 1.218 2.2-.397 3.138l-16.313 9.401c-.826.461-1.749.723-2.695.763-.946.041-1.889-.14-2.752-.528z"/><path d="m483.621 559.145-17.106-9.856c-1.395-.806-1.219-2.214.396-3.138l16.313-9.416c.828-.458 1.752-.717 2.698-.755.946-.039 1.887.145 2.75.536l17.091 9.855c1.395.807 1.218 2.215-.382 3.138l-16.328 9.416c-.825.459-1.746.717-2.69.756-.943.038-1.883-.146-2.742-.536z"/><path d="m507.791 573.092-17.091-9.87c-1.395-.792-1.219-2.2.382-3.138l16.327-9.401c.824-.461 1.745-.723 2.689-.763.943-.041 1.883.14 2.744.528l17.091 9.87c1.395.807 1.219 2.2-.396 3.139l-16.313 9.401c-.824.462-1.745.724-2.689.765-.943.04-1.884-.141-2.744-.531z"/><path d="m531.976 587.026-17.106-9.856c-1.394-.806-1.218-2.214.397-3.138l16.313-9.416c.827-.459 1.751-.717 2.697-.756.946-.038 1.888.146 2.75.536l17.091 9.856c1.395.806 1.219 2.214-.382 3.138l-16.327 9.416c-.825.458-1.747.717-2.69.756-.944.038-1.883-.146-2.743-.536z"/><path d="m586.066 618.239-46.986-27.117c-1.395-.807-1.234-2.215.382-3.139l16.312-9.415c.828-.459 1.752-.718 2.698-.756.946-.039 1.888.145 2.75.536l46.986 27.117c1.394.792 1.218 2.2-.397 3.138l-16.313 9.401c-.824.459-1.745.719-2.688.76-.943.04-1.883-.139-2.744-.525z"/><path d="m266.05 433.68-23.316-13.449c-1.469-.806-1.219-2.214.382-3.138l16.327-9.401c.823-.464 1.744-.728 2.688-.768.944-.041 1.885.142 2.745.533l23.316 13.449c1.395.807 1.219 2.215-.381 3.139l-16.299 9.415c-.828.463-1.755.725-2.704.763s-1.894-.148-2.758-.543z"/><path d="m680.741 563.635-343.348-197.99c-1.469-.792-1.219-2.2.396-3.138l8.164-4.693c.824-.461 1.745-.723 2.688-.763.944-.041 1.884.14 2.745.528l343.348 197.989c1.394.807 1.218 2.2-.397 3.139l-8.149 4.737c-.83.454-1.755.708-2.701.741s-1.886-.155-2.746-.55z"/></g><path d="m468.043 586.147c-.49 1.067-1.329 1.935-2.378 2.464l-94.471 54.483c-1.591.883-3.366 1.382-5.184 1.456-1.818.073-3.628-.279-5.285-1.03l-161.513-93.114c-.691-.358-1.247-.929-1.586-1.628-.588-1.467.235-3.094 2.378-4.326l94.486-54.499c1.59-.883 3.366-1.381 5.184-1.455s3.628.279 5.285 1.03l161.513 93.114c.653.282 1.176.799 1.467 1.447.291.649.328 1.383.104 2.058z" fill="#575981"/><path d="m468.042 586.146c-.49 1.067-1.329 1.936-2.378 2.464l-94.471 54.484c-1.59.883-3.366 1.381-5.184 1.455s-3.628-.279-5.285-1.03l-161.513-93.114c-.691-.358-1.247-.929-1.586-1.628.501-1.056 1.337-1.917 2.379-2.449l94.485-54.484c1.59-.884 3.364-1.384 5.182-1.461 1.818-.076 3.629.274 5.287 1.021l161.513 93.129c.686.352 1.238.919 1.571 1.613z" fill="#383961"/><path d="m706.872 548.615-343.348-197.989c-.756-.559-1.371-1.286-1.797-2.123-.425-.838-.65-1.763-.655-2.702v-4.033c0-1.863 1.131-2.713 2.526-1.907l343.348 197.989c.769.548 1.399 1.269 1.837 2.105.439.835.675 1.762.688 2.706v4.033c-.073 1.877-1.204 2.728-2.599 1.921z" fill="#232449"/><path d="m721.302 528.436-368.604-212.561.192-272.3907c0-2.7893 1.96-3.9153 4.381-2.559l359.842 207.5457c1.275.829 2.337 1.948 3.098 3.264s1.201 2.793 1.283 4.311z" fill="url(#b)" opacity=".3"/><path d="m722.162 537.778-359.841-207.507c-5.047-2.917-9.133-10.722-9.133-17.44v-267.3793c0-6.7173 4.086-9.8136 9.133-6.8964l359.841 207.5327c5.048 2.905 9.134 10.71 9.134 17.44v267.354c0 6.743-4.086 9.814-9.134 6.896z" fill="#141530"/><path d="m576.461 213.902-24.429-14.087v-8.803l24.429 14.087z" fill="#a298e2"/><path d="m632.927 246.488-51.893-29.953v-8.803l51.893 29.953z" fill="#f9dd79"/><path d="m576.461 242.061-24.429-14.075v-8.802l24.429 14.074z" fill="#a298e2"/><path d="m598.225 254.83-17.191-10.121v-8.803l17.191 10.121z" fill="#4d3bff"/><path d="m576.461 256.148-24.429-14.087v-8.803l24.429 14.087z" fill="#a298e2"/><path d="m610.034 275.506-29.002-16.723v-8.803l29.002 16.723z" fill="#4d3bff"/><path d="m576.461 270.223-24.429-14.074v-8.803l24.429 14.087z" fill="#a298e2"/><path d="m657.522 316.873-76.488-44.002v-8.803l76.488 44.015z" fill="#ff8657"/><path d="m576.461 227.988-24.429-14.087v-8.803l24.429 14.087z" fill="#a298e2"/><path d="m676.312 285.628-95.28-55.005v-8.803l95.28 55.006z" fill="#a298e2"/><path d="m576.461 284.308-24.429-14.087v-8.803l24.429 14.087z" fill="#a298e2"/><path d="m663.451 335.362-82.419-48.403v-8.803l82.419 48.403z" fill="#c33afc"/><path d="m576.461 312.482-24.429-14.087v-8.803l24.429 14.087z" fill="#a298e2"/><path d="m677.198 370.572-96.164-55.453v-8.803l96.164 55.453z" fill="#a298e2"/><path d="m576.461 326.557-24.429-14.074v-8.803l24.429 14.074z" fill="#a298e2"/><path d="m610.034 345.93-29.002-16.736v-8.79l29.002 16.723z" fill="#c33afc"/><path d="m576.461 340.646-24.429-14.087v-8.803l24.429 14.087z" fill="#a298e2"/><path d="m640.291 377.61-59.259-34.329v-8.802l59.259 34.328z" fill="#4d3bff"/><path d="m576.461 298.396-24.429-14.087v-8.803l24.429 14.087z" fill="#a298e2"/><path d="m591.716 307.199-10.684-6.168v-8.802l10.684 6.167z" fill="#4d3bff"/><path d="m576.461 354.732-24.429-14.087v-8.803l24.429 14.087z" fill="#a298e2"/><path d="m619.284 379.376-38.25-22.007v-8.803l38.25 22.008z" fill="#c33afc"/><path d="m576.461 382.894-24.429-14.087v-8.803l24.429 14.087z" fill="#a298e2"/><path d="m636.845 417.312-55.813-31.783v-8.802l55.813 31.782z" fill="#ff8657"/><path d="m576.461 396.982-24.429-14.087v-8.803l24.429 14.087z" fill="#a298e2"/><path d="m588.001 404.017-6.969-4.402v-8.803l6.969 4.402z" fill="#a298e2"/><path d="m576.461 411.053-24.429-14.074v-8.803l24.429 14.074z" fill="#a298e2"/><path d="m613.044 432.115-32.012-18.412v-8.803l32.012 18.412z" fill="#f9dd79"/><path d="m576.463 368.806-24.429-14.074v-8.816l24.429 14.087z" fill="#a298e2"/><path d="m625.572 396.979-44.54-25.539v-8.79l44.54 25.526z" fill="#4d3bff"/><path d="m418.463 125.882-24.429-14.087v-8.803l24.429 14.087z" fill="#a298e2"/><path d="m526.832 188.372-103.798-59.854v-8.803l103.798 59.854z" fill="#c33afc"/><path d="m418.465 154.042-24.429-14.087v-8.803l24.429 14.088z" fill="#a298e2"/><path d="m491.724 196.293-68.686-39.613v-8.803l68.686 39.613z" fill="#f9dd79"/><path d="m418.463 168.13-24.429-14.087v-8.803l24.429 14.087z" fill="#a298e2"/><path d="m508.514 220.054-85.48-49.286v-8.803l85.48 49.286z" fill="#ff8657"/><path d="m418.466 182.207-24.428-14.074v-8.803l24.428 14.074z" fill="#a298e2"/><path d="m482.565 219.182-59.527-34.328v-8.803l59.527 34.328z" fill="#a298e2"/><path d="m418.466 139.955-24.428-14.087v-8.79l24.428 14.074z" fill="#a298e2"/><path d="m474.931 172.533-51.893-29.927v-8.803l51.893 29.927z" fill="#4d3bff"/><path d="m418.465 196.296-24.429-14.087v-8.803l24.429 14.087z" fill="#a298e2"/><path d="m453.564 216.534-30.526-17.606v-8.803l30.526 17.606z" fill="#c33afc"/><path d="m418.465 224.455-24.429-14.087v-8.79l24.429 14.074z" fill="#a298e2"/><path d="m519.198 282.557-96.164-55.453v-8.803l96.164 55.453z" fill="#f9dd79"/><path d="m418.463 238.542-24.429-14.087v-8.803l24.429 14.088z" fill="#a298e2"/><path d="m452.04 257.901-29.002-16.723v-8.803l29.002 16.723z" fill="#ff8657"/><path d="m418.463 252.628-24.429-14.087v-8.803l24.429 14.087z" fill="#a298e2"/><path d="m508.518 304.552-85.48-49.286v-8.803l85.48 49.299z" fill="#a298e2"/><path d="m418.463 210.38-24.429-14.087v-8.803l24.429 14.087z" fill="#a298e2"/><path d="m503.928 259.666-80.894-46.65v-8.803l80.894 46.65z" fill="#4d3bff"/><path d="m418.465 266.703-24.429-14.087v-8.79l24.429 14.075z" fill="#a298e2"/><path d="m433.721 275.508-10.683-6.154v-8.803l10.683 6.154z" fill="#c33afc"/><path d="m418.463 294.876-24.429-14.087v-8.803l24.429 14.088z" fill="#a298e2"/><path d="m442.881 308.952-19.843-11.438v-8.803l19.843 11.439z" fill="#f9dd79"/><path d="m418.465 308.953-24.429-14.074v-8.803l24.429 14.075z" fill="#a298e2"/><path d="m474.931 341.529-51.893-29.927v-8.803l51.893 29.927z" fill="#ff8657"/><path d="m418.465 323.038-24.429-14.087v-8.803l24.429 14.088z" fill="#a298e2"/><path d="m505.457 373.207-82.419-47.533v-8.803l82.419 47.533z" fill="#a298e2"/><path d="m418.463 280.79-24.429-14.087v-8.803l24.429 14.088z" fill="#a298e2"/><path d="m526.836 343.282-103.798-59.854v-8.803l103.798 59.854z" fill="#4d3bff"/><path d="m269.07 243.204-90.528-52.205c-5.69-3.248-10.297-12.071-10.297-19.639v-142.2697c0-7.5785 4.607-11.0429 10.297-7.7733l90.528 52.2157c5.68 3.2479 10.286 12.0714 10.286 19.6391v142.2912c0 7.579-4.606 11.021-10.286 7.741z" fill="#3d4077"/><path d="m272.688 245.284 3.1-1.526-2.091-4.104z" fill="#3d4077"/><path d="m169.937 21.7187c.911-.5411 1.869-1.0012 2.861-1.3749l2.298 4.5362z" fill="#3d4077"/><path d="m266.697 244.394-90.539-52.237c-5.679-3.248-10.286-12.072-10.286-19.639v-142.2375c0-7.5785 4.607-11.0538 10.286-7.7734l90.539 52.2157c5.68 3.2479 10.286 12.0606 10.286 19.6283v142.2699c0 7.567-4.606 11.054-10.286 7.773z" fill="#232449"/><path d="m192.624 52.1737-16.465-9.4947v-5.9329l16.465 9.4947z" fill="#a298e2"/><path d="m265.667 94.2994-69.955-40.35v-5.9221l69.955 40.3392z" fill="#c33afc"/><path d="m192.624 71.1639-16.465-9.4947v-5.9329l16.465 9.4948z" fill="#a298e2"/><path d="m242.006 99.6366-46.294-26.6979v-5.9328l46.294 26.6979z" fill="#f9dd79"/><path d="m192.624 80.6453-16.465-9.4839v-5.9329l16.465 9.4839z" fill="#a298e2"/><path d="m253.322 115.659-57.61-33.2261v-5.9329l57.61 33.226z" fill="#ff8657"/><path d="m192.624 90.1405-16.465-9.4947v-5.9329l16.465 9.4947z" fill="#a298e2"/><path d="m235.838 115.063-40.126-23.136v-5.9329l40.126 23.1359z" fill="#a298e2"/><path d="m192.624 61.6679-16.465-9.4948v-5.9329l16.465 9.4948z" fill="#a298e2"/><path d="m230.69 83.623-34.978-20.1804v-5.9328l34.978 20.1695z" fill="#4d3bff"/><path d="m192.624 99.6366-16.465-9.4947v-5.9329l16.465 9.4947z" fill="#a298e2"/><path d="m216.284 113.277-20.572-11.866v-5.9325l20.572 11.8655z" fill="#c33afc"/><path d="m192.624 118.614-16.465-9.484v-5.933l16.465 9.495z" fill="#a298e2"/><path d="m260.529 157.774-64.817-37.372v-5.933l64.817 37.372z" fill="#f9dd79"/><path d="m192.624 128.109-16.465-9.494v-5.933l16.465 9.494z" fill="#a298e2"/><path d="m215.255 141.166-19.543-11.27v-5.933l19.543 11.27z" fill="#ff8657"/><path d="m192.624 137.603-16.465-9.494v-5.933l16.465 9.495z" fill="#a298e2"/><path d="m253.322 172.605-57.61-33.226v-5.922l57.61 33.215z" fill="#a298e2"/><path d="m192.624 109.133-16.465-9.4951v-5.9328l16.465 9.4949z" fill="#a298e2"/><path d="m250.232 142.358-54.52-31.451v-5.932l54.52 31.45z" fill="#4d3bff"/><path d="m192.624 147.098-16.465-9.495v-5.933l16.465 9.495z" fill="#a298e2"/><path d="m202.909 153.032-7.197-4.158v-5.933l7.197 4.158z" fill="#c33afc"/><path d="m192.624 166.077-16.465-9.484v-5.933l16.465 9.495z" fill="#a298e2"/><path d="m209.087 175.573-13.375-7.708v-5.933l13.375 7.708z" fill="#f9dd79"/><path d="m192.624 175.572-16.465-9.495v-5.932l16.465 9.494z" fill="#a298e2"/><path d="m230.69 197.528-34.978-20.169v-5.933l34.978 20.169z" fill="#ff8657"/><path d="m192.624 185.066-16.465-9.494v-5.933l16.465 9.494z" fill="#a298e2"/><path d="m251.262 218.889-55.55-32.046v-5.933l55.55 32.046z" fill="#a298e2"/><path d="m192.624 156.594-16.465-9.495v-5.933l16.465 9.495z" fill="#a298e2"/><path d="m265.667 198.72-69.955-40.35v-5.932l69.955 40.339z" fill="#4d3bff"/><path d="m99.1011 106.027-70.3141-40.5486c-4.4199-2.5227-7.9979-9.376-7.9979-15.2539v-43.23068c0-5.8863 3.578-8.57718 7.9979-6.037663l70.3141 40.556643c4.4119 2.5227 7.9899 9.376 7.9899 15.2539v43.2473c0 5.887-3.578 8.561-7.9899 6.013z" fill="#32356f"/><path d="m101.915 107.642 2.408-1.185-1.625-3.187z" fill="#32356f"/><path d="m22.1035 1.26911c.7081-.420285 1.4518-.777636 2.2226-1.067938l1.7848 3.523368z" fill="#32356f"/><path d="m97.2583 106.95-70.3225-40.5733c-4.4115-2.5227-7.9895-9.376-7.9895-15.2539v-43.20548c0-5.88631 3.578-8.585596 7.9895-6.03767l70.3225 40.55665c4.4117 2.5227 7.9897 9.3676 7.9897 15.2455v43.2302c0 5.878-3.578 8.586-7.9897 6.038z" fill="#1f2149"/><path d="m39.7247 24.9223-12.7882-7.3747v-4.6081l12.7882 7.3747z" fill="#a298e2"/><path d="m96.4592 57.6413-54.3352-31.3404v-4.5997l54.3352 31.3319z" fill="#c33afc"/><path d="m39.7247 39.6703-12.7882-7.3747v-4.6081l12.7882 7.3747z" fill="#a298e2"/><path d="m78.0809 61.7861-35.9569-20.7366v-4.6081l35.9569 20.7366z" fill="#f9dd79"/><path d="m39.7247 47.0369-12.7882-7.3663v-4.6081l12.7882 7.3663z" fill="#a298e2"/><path d="m86.8701 74.2318-44.7461-25.8073v-4.6081l44.7461 25.8072z" fill="#ff8657"/><path d="m39.7247 54.4125-12.7882-7.3747v-4.6081l12.7882 7.3747z" fill="#a298e2"/><path d="m73.2906 73.7696-31.1666-17.9701v-4.6081l31.1666 17.97z" fill="#a298e2"/><path d="m39.7247 32.2973-12.7882-7.3747v-4.6081l12.7882 7.3747z" fill="#a298e2"/><path d="m69.2916 49.3489-27.1676-15.6744v-4.6081l27.1676 15.666z" fill="#4d3bff"/><path d="m39.7247 61.7875-12.7882-7.3747v-4.6081l12.7882 7.3747z" fill="#a298e2"/><path d="m58.103 72.383-15.979-9.2163v-4.6081l15.979 9.2163z" fill="#c33afc"/></svg>