<svg fill="none" height="36" viewBox="0 0 33 36" width="33" xmlns="http://www.w3.org/2000/svg"><g clip-rule="evenodd" fill-rule="evenodd"><path d="m16.5053.484375h-15.788503l3.099073 31.286025 12.68943 3.6292 12.6788-3.6292 3.2003-31.286025" fill="#e4492f"/><path d="m4.33063 31.3753 12.16447 3.4214 12.1539-3.4214 3.1095-30.389542h-30.41613zm12.17427 4.6246-13.20384-3.7175-3.30106-32.2824h33l-3.2909 32.2824z" fill="#131741"/><path d="m26.6955 29.9652 2.6851-27.16442h-13.0017v29.87602" fill="#e96d31"/><path d="m21.024 23.1225-4.6434 1.8142-4.533-1.41v-3.0169l-4.23982-.1083.51475 5.9358 8.15637 2.6127 8.3387-2.4158 1.0401-11.8813h-14.7388l-.414-4.0133h15.4656l.212-3.93452h-19.89734l1.1408 11.77352h13.60804" fill="#fff"/></g></svg>