<svg fill="none" height="16" viewBox="0 0 15 16" width="15" xmlns="http://www.w3.org/2000/svg"><path clip-rule="evenodd" d="m3.76491.0343806c-1.11166.5125784-2.16449 1.0532894-2.902912 1.9126894-.743629.86546-1.094365 2.00737-.695143 3.6009 1.169215 4.66703 5.165665 8.63833 9.597175 10.27163 1.19487.3867 2.54117.1511 3.42717-.7015.8085-.778 1.5125-2.0526 1.7718-3.1625.171-.7317-.2727-1.2672-.8797-1.5693l-3.6333-1.80808c-.92031-.24474-1.39971.89725-1.71963 1.56888-1.43286-.88638-2.52183-1.97467-3.26316-3.49557.64634-.34518 1.71558-.88991 1.5005-1.80486l-1.71234-3.935653c-.19693-.65483-.84606-1.030622-1.49046-.8766364z" fill="#f2f2f2" fill-rule="evenodd"/></svg>