<svg fill="none" height="36" viewBox="0 0 33 36" width="33" xmlns="http://www.w3.org/2000/svg"><g clip-rule="evenodd" fill-rule="evenodd"><path d="m16.4471.496094h-15.927569l3.230679 31.348106 12.69689 3.6359 12.6973-3.6359 3.2307-31.348106" fill="#0066a9"/><path d="m4.2731 31.4578 12.1756 3.4364 12.176-3.4364 3.1282-30.44177h-30.59791zm12.1756 4.5422-13.21834-3.7356-3.23036-32.2644h33l-3.2203 32.2644z" fill="#111840"/><path d="m26.9696 30.0434 2.5969-27.09418h-13.004v29.72408" fill="#13a1d1"/><path d="m16.4474 29.0266-8.01467-2.2312-.63377-6.3654 3.85404-.0997.2144 3.3271 4.4778 1.4144 4.7844-1.9225v-4.5523l-13.5251-.1892-.41934-3.6358 9.68154-3.9544-9.89598-.1998-.30666-3.63538h19.66934l-.1022 3.84498-9.5794 3.8449 8.956.1099-.9409 11.913" fill="#fefefe"/></g></svg>